M48
; DRILL file {KiCad (6.0.1-0)} date Sunday, February 13, 2022 at 02:45:29 PM
; FORMAT={-:-/ absolute / inch / decimal}
; #@! TF.CreationDate,2022-02-13T14:45:29-08:00
; #@! TF.GenerationSoftware,Kicad,Pcbnew,(6.0.1-0)
; #@! TF.FileFunction,Plated,1,4,PTH
FMAT,2
INCH
; #@! TA.AperFunction,Plated,PTH,ViaDrill
T1C0.0157
; #@! TA.AperFunction,Plated,PTH,ComponentDrill
T2C0.0197
%
G90
G05
T1
X5.7638Y-3.8583
X5.7638Y-3.937
X5.7638Y-4.0197
X5.7638Y-4.0984
X5.7638Y-4.1732
X5.7638Y-4.3307
X5.815Y-4.3228
X5.8504Y-4.1575
X5.8543Y-4.1024
X5.8622Y-4.2323
X5.8858Y-3.9055
X5.8937Y-3.8307
X5.8937Y-4.3268
X5.9134Y-4.3661
X5.9291Y-3.9724
X5.9292Y-4.0276
X5.9331Y-3.878
X5.9424Y-4.0698
X5.9488Y-4.3858
X5.9528Y-4.2362
X5.9724Y-4.0748
X5.9803Y-3.9961
X5.9803Y-4.3583
X5.9876Y-4.1047
X5.9961Y-4.1929
X5.9961Y-4.2402
X5.9961Y-4.2835
X6.0197Y-4.3583
X6.0236Y-4.1024
X6.0433Y-3.937
X6.0433Y-4.2362
X6.1024Y-4.378
X6.1339Y-4.2795
X6.1457Y-3.8307
X6.1457Y-4.0472
X6.1496Y-4.378
X6.1614Y-4.248
X6.167Y-4.1298
X6.1732Y-3.8898
X6.1969Y-4.2835
X6.2008Y-3.937
X6.2008Y-4.0197
X6.2008Y-4.0906
X6.2047Y-4.1772
T2
X5.6693Y-3.8189
X5.6693Y-3.8976
X5.6693Y-3.9764
X5.6693Y-4.0606
X5.6693Y-4.1339
X5.6693Y-4.2087
X5.6693Y-4.2913
X5.6693Y-4.3701
X5.7323Y-3.8189
X5.7323Y-3.8976
X5.7323Y-3.9764
X5.7323Y-4.0606
X5.7323Y-4.1339
X5.7323Y-4.2087
X5.7323Y-4.2913
X5.7323Y-4.3701
X6.2354Y-4.1378
X6.2362Y-3.8189
X6.2362Y-3.8976
X6.2362Y-3.9764
X6.2362Y-4.0551
X6.2362Y-4.2126
X6.2362Y-4.2913
X6.2362Y-4.3701
X6.2984Y-4.1378
X6.2992Y-3.8189
X6.2992Y-3.8976
X6.2992Y-3.9764
X6.2992Y-4.0551
X6.2992Y-4.2126
X6.2992Y-4.2913
X6.2992Y-4.3701
T0
M30
