%TF.GenerationSoftware,KiCad,Pcbnew,(6.0.1-0)*%
%TF.CreationDate,2022-02-07T15:37:48-08:00*%
%TF.ProjectId,Untitled,556e7469-746c-4656-942e-6b696361645f,rev?*%
%TF.SameCoordinates,Original*%
%TF.FileFunction,Copper,L1,Top*%
%TF.FilePolarity,Positive*%
%FSLAX46Y46*%
G04 Gerber Fmt 4.6, Leading zero omitted, Abs format (unit mm)*
G04 Created by KiCad (PCBNEW (6.0.1-0)) date 2022-02-07 15:37:48*
%MOMM*%
%LPD*%
G01*
G04 APERTURE LIST*
G04 Aperture macros list*
%AMRoundRect*
0 Rectangle with rounded corners*
0 $1 Rounding radius*
0 $2 $3 $4 $5 $6 $7 $8 $9 X,Y pos of 4 corners*
0 Add a 4 corners polygon primitive as box body*
4,1,4,$2,$3,$4,$5,$6,$7,$8,$9,$2,$3,0*
0 Add four circle primitives for the rounded corners*
1,1,$1+$1,$2,$3*
1,1,$1+$1,$4,$5*
1,1,$1+$1,$6,$7*
1,1,$1+$1,$8,$9*
0 Add four rect primitives between the rounded corners*
20,1,$1+$1,$2,$3,$4,$5,0*
20,1,$1+$1,$4,$5,$6,$7,0*
20,1,$1+$1,$6,$7,$8,$9,0*
20,1,$1+$1,$8,$9,$2,$3,0*%
%AMRotRect*
0 Rectangle, with rotation*
0 The origin of the aperture is its center*
0 $1 length*
0 $2 width*
0 $3 Rotation angle, in degrees counterclockwise*
0 Add horizontal line*
21,1,$1,$2,0,0,$3*%
%AMFreePoly0*
4,1,18,0.825000,-0.500000,-0.825000,-0.500000,-0.825000,-0.495033,-0.904941,-0.493568,-1.040256,-0.451293,-1.158266,-0.372738,-1.249486,-0.264219,-1.306581,-0.134460,-1.324963,0.006109,-1.303152,0.146186,-1.242904,0.274511,-1.149060,0.380769,-1.029165,0.456417,-0.892858,0.495374,-0.825000,0.494959,-0.825000,0.500000,0.825000,0.500000,0.825000,-0.500000,0.825000,-0.500000,$1*%
G04 Aperture macros list end*
%TA.AperFunction,ComponentPad*%
%ADD10C,0.750000*%
%TD*%
%TA.AperFunction,SMDPad,CuDef*%
%ADD11FreePoly0,0.000000*%
%TD*%
%TA.AperFunction,SMDPad,CuDef*%
%ADD12RoundRect,0.140000X0.021213X-0.219203X0.219203X-0.021213X-0.021213X0.219203X-0.219203X0.021213X0*%
%TD*%
%TA.AperFunction,SMDPad,CuDef*%
%ADD13RotRect,0.300000X0.850000X315.000000*%
%TD*%
%TA.AperFunction,SMDPad,CuDef*%
%ADD14RotRect,0.300000X0.850000X225.000000*%
%TD*%
%TA.AperFunction,SMDPad,CuDef*%
%ADD15RotRect,2.650000X2.650000X225.000000*%
%TD*%
%TA.AperFunction,SMDPad,CuDef*%
%ADD16RoundRect,0.147500X-0.017678X0.226274X-0.226274X0.017678X0.017678X-0.226274X0.226274X-0.017678X0*%
%TD*%
%TA.AperFunction,SMDPad,CuDef*%
%ADD17RoundRect,0.140000X-0.021213X0.219203X-0.219203X0.021213X0.021213X-0.219203X0.219203X-0.021213X0*%
%TD*%
%TA.AperFunction,SMDPad,CuDef*%
%ADD18RoundRect,0.147500X0.017678X-0.226274X0.226274X-0.017678X-0.017678X0.226274X-0.226274X0.017678X0*%
%TD*%
%TA.AperFunction,SMDPad,CuDef*%
%ADD19RoundRect,0.140000X0.219203X0.021213X0.021213X0.219203X-0.219203X-0.021213X-0.021213X-0.219203X0*%
%TD*%
%TA.AperFunction,SMDPad,CuDef*%
%ADD20RoundRect,0.147500X-0.226274X-0.017678X-0.017678X-0.226274X0.226274X0.017678X0.017678X0.226274X0*%
%TD*%
%TA.AperFunction,SMDPad,CuDef*%
%ADD21RotRect,0.800000X1.000000X225.000000*%
%TD*%
%TA.AperFunction,SMDPad,CuDef*%
%ADD22R,0.550000X0.550000*%
%TD*%
%TA.AperFunction,SMDPad,CuDef*%
%ADD23R,0.300000X0.500000*%
%TD*%
%TA.AperFunction,SMDPad,CuDef*%
%ADD24FreePoly0,180.000000*%
%TD*%
%TA.AperFunction,ViaPad*%
%ADD25C,0.600000*%
%TD*%
%TA.AperFunction,ViaPad*%
%ADD26C,0.800000*%
%TD*%
%TA.AperFunction,Conductor*%
%ADD27C,0.250000*%
%TD*%
%TA.AperFunction,Conductor*%
%ADD28C,0.200000*%
%TD*%
G04 APERTURE END LIST*
D10*
%TO.P,J11,1,Pin_1*%
%TO.N,SX_DIO3*%
X160000000Y-107000000D03*
X158400000Y-107000000D03*
D11*
%TO.P,J11,11,Pin_1*%
X159162000Y-107000000D03*
%TD*%
D12*
%TO.P,C6,1*%
%TO.N,Net-(C6-Pad1)*%
X155221178Y-106078822D03*
%TO.P,C6,2*%
%TO.N,GND*%
X155900000Y-105400000D03*
%TD*%
D13*
%TO.P,U1,1,VR_PA*%
%TO.N,Net-(C5-Pad1)*%
X154562742Y-107105025D03*
%TO.P,U1,2,VDD_IN*%
%TO.N,Net-(C6-Pad1)*%
X154209188Y-106751472D03*
%TO.P,U1,3,NRESET*%
%TO.N,Net-(U1-Pad3)*%
X153855635Y-106397918D03*
%TO.P,U1,4,XTA*%
%TO.N,Net-(U1-Pad4)*%
X153502082Y-106044365D03*
%TO.P,U1,5,GND*%
%TO.N,GND*%
X153148528Y-105690812D03*
%TO.P,U1,6,XTB*%
%TO.N,unconnected-(U1-Pad6)*%
X152794975Y-105337258D03*
D14*
%TO.P,U1,7,BUSY*%
%TO.N,SX_BUSY*%
X151805025Y-105337258D03*
%TO.P,U1,8,DIO1*%
%TO.N,SX_DIO1*%
X151451472Y-105690812D03*
%TO.P,U1,9,DIO2*%
%TO.N,SX_DIO2*%
X151097918Y-106044365D03*
%TO.P,U1,10,DIO3*%
%TO.N,SX_DIO3*%
X150744365Y-106397918D03*
%TO.P,U1,11,VBAT_IO*%
%TO.N,+3V3*%
X150390812Y-106751472D03*
%TO.P,U1,12,DCC_FB*%
%TO.N,Net-(C6-Pad1)*%
X150037258Y-107105025D03*
D13*
%TO.P,U1,13,GND*%
%TO.N,GND*%
X150037258Y-108094975D03*
%TO.P,U1,14,DCC_SW*%
%TO.N,Net-(L4-Pad2)*%
X150390812Y-108448528D03*
%TO.P,U1,15,VBAT*%
%TO.N,+3V3*%
X150744365Y-108802082D03*
%TO.P,U1,16,MISO_TX*%
%TO.N,Net-(U1-Pad16)*%
X151097918Y-109155635D03*
%TO.P,U1,17,MOSI_RX*%
%TO.N,Net-(U1-Pad17)*%
X151451472Y-109509188D03*
%TO.P,U1,18,SCK_RTSN*%
%TO.N,Net-(U1-Pad18)*%
X151805025Y-109862742D03*
D14*
%TO.P,U1,19,NSS_CTS*%
%TO.N,Net-(U1-Pad19)*%
X152794975Y-109862742D03*
%TO.P,U1,20,GND*%
%TO.N,GND*%
X153148528Y-109509188D03*
%TO.P,U1,21,GND*%
X153502082Y-109155635D03*
%TO.P,U1,22,RFIO*%
%TO.N,Net-(U1-Pad22)*%
X153855635Y-108802082D03*
%TO.P,U1,23,GND*%
%TO.N,GND*%
X154209188Y-108448528D03*
%TO.P,U1,24,GND*%
X154562742Y-108094975D03*
D15*
%TO.P,U1,25*%
X152300000Y-107600000D03*
%TD*%
D16*
%TO.P,R4,1*%
%TO.N,Net-(U1-Pad19)*%
X148327947Y-103257053D03*
%TO.P,R4,2*%
%TO.N,SX_CS*%
X147642053Y-103942947D03*
%TD*%
D10*
%TO.P,J14,1,Pin_1*%
%TO.N,SX_DIO0*%
X160000000Y-101000000D03*
X158400000Y-101000000D03*
D11*
%TO.P,J14,14,Pin_1*%
X159162000Y-101000000D03*
%TD*%
D17*
%TO.P,C8,1*%
%TO.N,+3V3*%
X149400000Y-105900000D03*
%TO.P,C8,2*%
%TO.N,GND*%
X148721178Y-106578822D03*
%TD*%
D10*
%TO.P,J10,1,Pin_1*%
%TO.N,GND*%
X158400000Y-109000000D03*
X160000000Y-109000000D03*
D11*
%TO.P,J10,10,Pin_1*%
X159162000Y-109000000D03*
%TD*%
D10*
%TO.P,J9,1,Pin_1*%
%TO.N,ANT_OUT*%
X158400000Y-111000000D03*
X160000000Y-111000000D03*
D11*
%TO.P,J9,9,Pin_1*%
X159162000Y-111000000D03*
%TD*%
D10*
%TO.P,J15,1,Pin_1*%
%TO.N,SX_DIO1*%
X160000000Y-99000000D03*
X158400000Y-99000000D03*
D11*
%TO.P,J15,15,Pin_1*%
X159162000Y-99000000D03*
%TD*%
D12*
%TO.P,C9,1*%
%TO.N,Net-(C6-Pad1)*%
X147200000Y-107900000D03*
%TO.P,C9,2*%
%TO.N,GND*%
X147878822Y-107221178D03*
%TD*%
D10*
%TO.P,J13,1,Pin_1*%
%TO.N,+3V3*%
X160000000Y-103000000D03*
X158400000Y-103000000D03*
D11*
%TO.P,J13,13,Pin_1*%
X159162000Y-103000000D03*
%TD*%
D10*
%TO.P,J12,1,Pin_1*%
%TO.N,SX_BUSY*%
X158380000Y-105100000D03*
X159980000Y-105100000D03*
D11*
%TO.P,J12,12,Pin_1*%
X159142000Y-105100000D03*
%TD*%
D18*
%TO.P,R5,1*%
%TO.N,SX_RST*%
X147400000Y-105700000D03*
%TO.P,R5,2*%
%TO.N,Net-(U1-Pad3)*%
X148085894Y-105014106D03*
%TD*%
D10*
%TO.P,J16,1,Pin_1*%
%TO.N,SX_DIO2*%
X160000000Y-97000000D03*
X158400000Y-97000000D03*
D11*
%TO.P,J16,16,Pin_1*%
X159162000Y-97000000D03*
%TD*%
D16*
%TO.P,R1,1*%
%TO.N,Net-(U1-Pad16)*%
X148185894Y-97314106D03*
%TO.P,R1,2*%
%TO.N,MISO*%
X147500000Y-98000000D03*
%TD*%
D19*
%TO.P,C12,1*%
%TO.N,+3V3*%
X156000000Y-100900000D03*
%TO.P,C12,2*%
%TO.N,GND*%
X155321178Y-100221178D03*
%TD*%
D12*
%TO.P,C5,1*%
%TO.N,Net-(C5-Pad1)*%
X156060589Y-106839411D03*
%TO.P,C5,2*%
%TO.N,GND*%
X156739411Y-106160589D03*
%TD*%
D17*
%TO.P,C10,1*%
%TO.N,+3V3*%
X148678822Y-110221178D03*
%TO.P,C10,2*%
%TO.N,GND*%
X148000000Y-110900000D03*
%TD*%
D20*
%TO.P,L1,1,1*%
%TO.N,Net-(C6-Pad1)*%
X148314106Y-108314106D03*
%TO.P,L1,2,2*%
%TO.N,Net-(L4-Pad2)*%
X149000000Y-109000000D03*
%TD*%
D17*
%TO.P,C11,1*%
%TO.N,Net-(C11-Pad1)*%
X154778822Y-104121178D03*
%TO.P,C11,2*%
%TO.N,Net-(U1-Pad4)*%
X154100000Y-104800000D03*
%TD*%
D16*
%TO.P,R3,1*%
%TO.N,Net-(U1-Pad18)*%
X148257947Y-101257053D03*
%TO.P,R3,2*%
%TO.N,SCK*%
X147572053Y-101942947D03*
%TD*%
D21*
%TO.P,U2,1,TCXO*%
%TO.N,GND*%
X154247487Y-100862563D03*
%TO.P,U2,2,GND*%
X152762563Y-102347487D03*
%TO.P,U2,3,OUT*%
%TO.N,Net-(C11-Pad1)*%
X153752513Y-103337437D03*
%TO.P,U2,4,Vcc*%
%TO.N,+3V3*%
X155237437Y-101852513D03*
%TD*%
D16*
%TO.P,R2,1*%
%TO.N,Net-(U1-Pad17)*%
X148227947Y-99257053D03*
%TO.P,R2,2*%
%TO.N,MOSI*%
X147542053Y-99942947D03*
%TD*%
D22*
%TO.P,U3,1,IN*%
%TO.N,Net-(U1-Pad22)*%
X154900000Y-110000000D03*
D23*
%TO.P,U3,2,GND*%
%TO.N,GND*%
X155500000Y-110350000D03*
D22*
%TO.P,U3,3,OUT*%
%TO.N,ANT_OUT*%
X156100000Y-110000000D03*
D23*
%TO.P,U3,4,GND*%
%TO.N,GND*%
X155500000Y-109650000D03*
%TD*%
D10*
%TO.P,J5,1,Pin_1*%
%TO.N,SX_CS*%
X145600000Y-105000000D03*
X144000000Y-105000000D03*
D24*
%TO.P,J5,5,Pin_1*%
X144838000Y-105000000D03*
%TD*%
D10*
%TO.P,J3,1,Pin_1*%
%TO.N,MOSI*%
X144000000Y-101000000D03*
X145600000Y-101000000D03*
D24*
%TO.P,J3,3,Pin_1*%
X144838000Y-101000000D03*
%TD*%
D10*
%TO.P,J4,1,Pin_1*%
%TO.N,SCK*%
X145600000Y-103140000D03*
X144000000Y-103140000D03*
D24*
%TO.P,J4,4,Pin_1*%
X144838000Y-103140000D03*
%TD*%
D10*
%TO.P,J6,1,Pin_1*%
%TO.N,SX_RST*%
X145600000Y-106900000D03*
X144000000Y-106900000D03*
D24*
%TO.P,J6,6,Pin_1*%
X144838000Y-106900000D03*
%TD*%
D10*
%TO.P,J2,1,Pin_1*%
%TO.N,MISO*%
X145600000Y-99000000D03*
X144000000Y-99000000D03*
D24*
%TO.P,J2,2,Pin_1*%
X144838000Y-99000000D03*
%TD*%
D10*
%TO.P,J8,1,Pin_1*%
%TO.N,GND*%
X145600000Y-111000000D03*
X144000000Y-111000000D03*
D24*
%TO.P,J8,8,Pin_1*%
X144838000Y-111000000D03*
%TD*%
D10*
%TO.P,J1,1,Pin_1*%
%TO.N,GND*%
X144000000Y-97000000D03*
D24*
X144838000Y-97000000D03*
D10*
X145600000Y-97000000D03*
%TD*%
%TO.P,J7,1,Pin_1*%
%TO.N,unconnected-(J7-Pad1)*%
X144000000Y-109000000D03*
X145600000Y-109000000D03*
D24*
%TO.P,J7,7,Pin_1*%
X144838000Y-109000000D03*
%TD*%
D25*
%TO.N,+3V3*%
X148600000Y-105600000D03*
%TO.N,GND*%
X155000000Y-111200000D03*
X153500000Y-107600000D03*
X156200000Y-111200000D03*
X146400000Y-98000000D03*
X157600000Y-106100000D03*
X146400000Y-102100000D03*
X146400000Y-104100000D03*
X152300000Y-108800000D03*
X153500000Y-100000000D03*
X146400000Y-106000000D03*
X151900000Y-101500000D03*
X155800000Y-108700000D03*
X157400000Y-108800000D03*
X148900000Y-107500000D03*
X157500000Y-100000000D03*
X152300000Y-106500000D03*
X152300000Y-107700000D03*
X151200000Y-107600000D03*
X157500000Y-102100000D03*
X157500000Y-103900000D03*
X146400000Y-110000000D03*
X146400000Y-100000000D03*
X147700000Y-109800000D03*
D26*
%TO.N,+3V3*%
X156100000Y-102800000D03*
D25*
X149700000Y-109900000D03*
%TO.N,Net-(U1-Pad16)*%
X150200000Y-110900000D03*
X149700000Y-97300000D03*
%TO.N,Net-(U1-Pad17)*%
X149500000Y-99200000D03*
X151100000Y-111400000D03*
%TO.N,Net-(U1-Pad18)*%
X150600000Y-100900000D03*
X151900000Y-110700000D03*
%TO.N,Net-(U1-Pad19)*%
X152900000Y-110700000D03*
X150600469Y-102300000D03*
%TO.N,Net-(U1-Pad3)*%
X148700000Y-104200000D03*
X150700000Y-98500000D03*
%TO.N,SX_BUSY*%
X156640835Y-104897033D03*
X153000000Y-104200000D03*
%TO.N,SX_DIO1*%
X152085383Y-104258333D03*
X156799500Y-98800000D03*
%TO.N,SX_DIO2*%
X151700000Y-103500000D03*
X156100000Y-97300000D03*
%TO.N,SX_DIO3*%
X150937283Y-103372360D03*
X156500000Y-107900000D03*
%TD*%
D27*
%TO.N,+3V3*%
X148600000Y-105600000D02*
X149100000Y-105600000D01*
X149100000Y-105600000D02*
X149400000Y-105900000D01*
X149400000Y-105900000D02*
X149800000Y-106300000D01*
X149800000Y-106300000D02*
X149939340Y-106300000D01*
X149939340Y-106300000D02*
X150390812Y-106751472D01*
%TO.N,GND*%
X148721178Y-106578822D02*
X148721178Y-107321178D01*
X148721178Y-107321178D02*
X148900000Y-107500000D01*
%TO.N,SX_RST*%
X147400000Y-105700000D02*
X147024511Y-106075489D01*
X147024511Y-106075489D02*
X147024511Y-106258682D01*
X147024511Y-106258682D02*
X146383193Y-106900000D01*
X146383193Y-106900000D02*
X145600000Y-106900000D01*
%TO.N,Net-(U1-Pad3)*%
X148700000Y-104200000D02*
X148700000Y-104900000D01*
X148700000Y-104900000D02*
X148585894Y-105014106D01*
X148585894Y-105014106D02*
X148085894Y-105014106D01*
%TO.N,GND*%
X156739411Y-106160589D02*
X157539411Y-106160589D01*
X157539411Y-106160589D02*
X157600000Y-106100000D01*
X155900000Y-105400000D02*
X155978822Y-105400000D01*
X155978822Y-105400000D02*
X156739411Y-106160589D01*
%TO.N,Net-(C6-Pad1)*%
X147200000Y-107900000D02*
X147614106Y-108314106D01*
X147614106Y-108314106D02*
X148314106Y-108314106D01*
%TO.N,SX_BUSY*%
X156640835Y-104897033D02*
X157397033Y-104897033D01*
X157600000Y-105100000D02*
X158380000Y-105100000D01*
X157397033Y-104897033D02*
X157600000Y-105100000D01*
%TO.N,Net-(C5-Pad1)*%
X155698673Y-106498673D02*
X155434802Y-106762544D01*
X155434802Y-106762544D02*
X154913024Y-106762544D01*
X154900000Y-106749520D02*
X154562742Y-107086778D01*
X154913024Y-106762544D02*
X154900000Y-106749520D01*
X156039411Y-106839411D02*
X155698673Y-106498673D01*
X156060589Y-106839411D02*
X156039411Y-106839411D01*
X154562742Y-107086778D02*
X154562742Y-107105025D01*
%TO.N,GND*%
X152300000Y-107953553D02*
X152300000Y-107700000D01*
D28*
X146400000Y-110000000D02*
X146400000Y-110200000D01*
X154637437Y-100862563D02*
X154247487Y-100862563D01*
D27*
X155000000Y-111200000D02*
X155500000Y-110700000D01*
X154492712Y-108094975D02*
X153997737Y-107600000D01*
D28*
X150071934Y-108094975D02*
X150566909Y-107600000D01*
D27*
X156000000Y-111200000D02*
X155500000Y-110700000D01*
X153460660Y-107700000D02*
X152300000Y-107700000D01*
X153148528Y-109509188D02*
X152439340Y-108800000D01*
X152439340Y-108800000D02*
X152300000Y-108800000D01*
X151200000Y-107600000D02*
X152300000Y-107600000D01*
X153502082Y-109155635D02*
X152300000Y-107953553D01*
D28*
X146400000Y-110200000D02*
X145600000Y-111000000D01*
D27*
X154562742Y-108094975D02*
X154492712Y-108094975D01*
X157400000Y-108800000D02*
X159038000Y-108800000D01*
D28*
X152315076Y-101900000D02*
X152762563Y-102347487D01*
D27*
X156200000Y-111200000D02*
X156000000Y-111200000D01*
D28*
X150566909Y-107600000D02*
X151200000Y-107600000D01*
X152300000Y-101900000D02*
X152315076Y-101900000D01*
X153800000Y-100300000D02*
X153800000Y-100415076D01*
X153148528Y-105690812D02*
X153109188Y-105690812D01*
X148900000Y-107500000D02*
X148157644Y-107500000D01*
D27*
X153997737Y-107600000D02*
X153500000Y-107600000D01*
D28*
X153800000Y-100415076D02*
X154247487Y-100862563D01*
D27*
X155800000Y-108700000D02*
X155500000Y-109000000D01*
X148000000Y-110900000D02*
X147700000Y-110600000D01*
X159038000Y-108800000D02*
X159238000Y-109000000D01*
X147700000Y-110600000D02*
X147700000Y-109800000D01*
D28*
X155278822Y-100221178D02*
X154637437Y-100862563D01*
X155321178Y-100221178D02*
X155278822Y-100221178D01*
X151900000Y-101500000D02*
X152300000Y-101900000D01*
X150037258Y-108094975D02*
X150071934Y-108094975D01*
D27*
X154209188Y-108448528D02*
X153460660Y-107700000D01*
D28*
X153500000Y-100000000D02*
X153800000Y-100300000D01*
X148157644Y-107500000D02*
X147878822Y-107221178D01*
X153109188Y-105690812D02*
X152300000Y-106500000D01*
D27*
X155500000Y-109000000D02*
X155500000Y-109650000D01*
X145700000Y-110700000D02*
X145400000Y-111000000D01*
X155500000Y-110700000D02*
X155500000Y-110350000D01*
%TO.N,Net-(C6-Pad1)*%
X155221178Y-106078822D02*
X155000000Y-106300000D01*
X148314106Y-108314106D02*
X148828177Y-108314106D01*
X155000000Y-106300000D02*
X154660660Y-106300000D01*
X148828177Y-108314106D02*
X150037258Y-107105025D01*
X154660660Y-106300000D02*
X154209188Y-106751472D01*
D28*
%TO.N,+3V3*%
X156100000Y-102715076D02*
X155237437Y-101852513D01*
D27*
X150744365Y-108802082D02*
X150000000Y-109546447D01*
X150000000Y-109600000D02*
X149700000Y-109900000D01*
D28*
X155700000Y-101389950D02*
X155237437Y-101852513D01*
D27*
X150000000Y-109546447D02*
X150000000Y-109600000D01*
D28*
X158400000Y-103000000D02*
X156300000Y-103000000D01*
X155700000Y-101200000D02*
X155700000Y-101389950D01*
D27*
X149700000Y-109900000D02*
X149000000Y-109900000D01*
X149000000Y-109900000D02*
X148678822Y-110221178D01*
D28*
X156000000Y-100900000D02*
X155700000Y-101200000D01*
X156100000Y-102800000D02*
X156100000Y-102715076D01*
X156300000Y-103000000D02*
X156100000Y-102800000D01*
D27*
X158500000Y-103100000D02*
X158700000Y-103100000D01*
D28*
%TO.N,Net-(C11-Pad1)*%
X154457644Y-103800000D02*
X154215076Y-103800000D01*
X154778822Y-104121178D02*
X154457644Y-103800000D01*
X154215076Y-103800000D02*
X153752513Y-103337437D01*
%TO.N,Net-(U1-Pad4)*%
X154100000Y-105446447D02*
X153502082Y-106044365D01*
X154100000Y-104800000D02*
X154100000Y-105446447D01*
D27*
%TO.N,Net-(L4-Pad2)*%
X149300000Y-108700000D02*
X149000000Y-109000000D01*
X150390812Y-108448528D02*
X150013259Y-108826081D01*
X150013259Y-108826081D02*
X149626081Y-108826081D01*
X149626081Y-108826081D02*
X149500000Y-108700000D01*
X149500000Y-108700000D02*
X149300000Y-108700000D01*
D28*
%TO.N,Net-(U1-Pad16)*%
X148200000Y-97300000D02*
X148185894Y-97314106D01*
X151097918Y-109155635D02*
X150558723Y-109694830D01*
X150558723Y-110541277D02*
X150200000Y-110900000D01*
X149700000Y-97300000D02*
X148200000Y-97300000D01*
X150558723Y-109694830D02*
X150558723Y-110541277D01*
D27*
%TO.N,MISO*%
X146500000Y-99000000D02*
X145400000Y-99000000D01*
X147515000Y-98000000D02*
X147500000Y-98000000D01*
X147500000Y-98000000D02*
X146500000Y-99000000D01*
D28*
%TO.N,Net-(U1-Pad17)*%
X149500000Y-99200000D02*
X148285000Y-99200000D01*
X151098919Y-109861741D02*
X151098919Y-111298919D01*
X151451472Y-109509188D02*
X151098919Y-109861741D01*
X151100000Y-111300000D02*
X151100000Y-111400000D01*
X148285000Y-99200000D02*
X148227947Y-99257053D01*
X151098919Y-111298919D02*
X151100000Y-111300000D01*
D27*
%TO.N,MOSI*%
X146500000Y-101000000D02*
X145400000Y-101000000D01*
X147500000Y-100000000D02*
X146500000Y-101000000D01*
X147515000Y-100000000D02*
X147500000Y-100000000D01*
D28*
%TO.N,Net-(U1-Pad18)*%
X151805025Y-110605025D02*
X151900000Y-110700000D01*
X151805025Y-109862742D02*
X151805025Y-110605025D01*
X150600000Y-100900000D02*
X148615000Y-100900000D01*
X148615000Y-100900000D02*
X148257947Y-101257053D01*
D27*
%TO.N,SCK*%
X146300000Y-103200000D02*
X145300000Y-103200000D01*
X147515000Y-102000000D02*
X147500000Y-102000000D01*
X147500000Y-102000000D02*
X146300000Y-103200000D01*
D28*
%TO.N,Net-(U1-Pad19)*%
X152794975Y-109862742D02*
X152794975Y-110594975D01*
X149285000Y-102300000D02*
X148327947Y-103257053D01*
X152794975Y-110594975D02*
X152900000Y-110700000D01*
X150600469Y-102300000D02*
X149285000Y-102300000D01*
D27*
%TO.N,SX_CS*%
X147515000Y-104085000D02*
X146600000Y-105000000D01*
X146600000Y-105000000D02*
X144762000Y-105000000D01*
X147515000Y-104000000D02*
X147515000Y-104085000D01*
D28*
%TO.N,Net-(U1-Pad3)*%
X155600000Y-103400000D02*
X150700000Y-98500000D01*
X154499520Y-105754033D02*
X154499520Y-105600480D01*
X155600000Y-104500000D02*
X155600000Y-103400000D01*
X154499520Y-105600480D02*
X155600000Y-104500000D01*
X153855635Y-106397918D02*
X154499520Y-105754033D01*
%TO.N,SX_BUSY*%
X152400000Y-104800000D02*
X153000000Y-104200000D01*
X151805025Y-105337258D02*
X152342283Y-104800000D01*
X152342283Y-104800000D02*
X152400000Y-104800000D01*
%TO.N,SX_DIO1*%
X151859324Y-104258333D02*
X151000000Y-105117657D01*
X158200000Y-98800000D02*
X158400000Y-99000000D01*
X151000000Y-105117657D02*
X151000000Y-105239340D01*
X151000000Y-105239340D02*
X151451472Y-105690812D01*
X152085383Y-104258333D02*
X151859324Y-104258333D01*
X156799500Y-98800000D02*
X158200000Y-98800000D01*
%TO.N,SX_DIO2*%
X150600480Y-105546927D02*
X150600480Y-104400480D01*
X150600480Y-105546927D02*
X151097918Y-106044365D01*
X156100000Y-97300000D02*
X156400000Y-97000000D01*
X151700000Y-103600000D02*
X151700000Y-103500000D01*
X150600000Y-104400000D02*
X150900000Y-104100000D01*
X150900000Y-104100000D02*
X151200000Y-104100000D01*
X156400000Y-97000000D02*
X158400000Y-97000000D01*
X151200000Y-104100000D02*
X151700000Y-103600000D01*
X150600480Y-104400480D02*
X150600000Y-104400000D01*
%TO.N,SX_DIO3*%
X150100000Y-105753553D02*
X150100000Y-104209643D01*
X157500000Y-107900000D02*
X158400000Y-107000000D01*
X156500000Y-107900000D02*
X157500000Y-107900000D01*
X150100000Y-104209643D02*
X150937283Y-103372360D01*
X150744365Y-106397918D02*
X150100000Y-105753553D01*
D27*
%TO.N,Net-(U1-Pad22)*%
X154300000Y-109246447D02*
X154300000Y-109400000D01*
X154900000Y-109900000D02*
X154900000Y-110000000D01*
X154900000Y-110000000D02*
X154300000Y-109400000D01*
X153855635Y-108802082D02*
X154300000Y-109246447D01*
%TO.N,ANT_OUT*%
X159238000Y-111000000D02*
X158000000Y-111000000D01*
X158000000Y-111000000D02*
X157000000Y-110000000D01*
X157000000Y-110000000D02*
X156100000Y-110000000D01*
%TD*%
M02*
