%TF.GenerationSoftware,KiCad,Pcbnew,(6.0.1-0)*%
%TF.CreationDate,2022-02-07T15:37:48-08:00*%
%TF.ProjectId,Untitled,556e7469-746c-4656-942e-6b696361645f,rev?*%
%TF.SameCoordinates,Original*%
%TF.FileFunction,Copper,L3,Inr*%
%TF.FilePolarity,Positive*%
%FSLAX46Y46*%
G04 Gerber Fmt 4.6, Leading zero omitted, Abs format (unit mm)*
G04 Created by KiCad (PCBNEW (6.0.1-0)) date 2022-02-07 15:37:48*
%MOMM*%
%LPD*%
G01*
G04 APERTURE LIST*
%TA.AperFunction,ComponentPad*%
%ADD10C,0.750000*%
%TD*%
%TA.AperFunction,ViaPad*%
%ADD11C,0.600000*%
%TD*%
%TA.AperFunction,ViaPad*%
%ADD12C,0.800000*%
%TD*%
G04 APERTURE END LIST*
D10*
%TO.N,SX_DIO3*%
%TO.C,J11*%
X160000000Y-107000000D03*
X158400000Y-107000000D03*
%TD*%
%TO.N,SX_DIO0*%
%TO.C,J14*%
X160000000Y-101000000D03*
X158400000Y-101000000D03*
%TD*%
%TO.N,GND*%
%TO.C,J10*%
X158400000Y-109000000D03*
X160000000Y-109000000D03*
%TD*%
%TO.N,ANT_OUT*%
%TO.C,J9*%
X158400000Y-111000000D03*
X160000000Y-111000000D03*
%TD*%
%TO.N,SX_DIO1*%
%TO.C,J15*%
X160000000Y-99000000D03*
X158400000Y-99000000D03*
%TD*%
%TO.N,+3V3*%
%TO.C,J13*%
X160000000Y-103000000D03*
X158400000Y-103000000D03*
%TD*%
%TO.N,SX_BUSY*%
%TO.C,J12*%
X158380000Y-105100000D03*
X159980000Y-105100000D03*
%TD*%
%TO.N,SX_DIO2*%
%TO.C,J16*%
X160000000Y-97000000D03*
X158400000Y-97000000D03*
%TD*%
%TO.N,SX_CS*%
%TO.C,J5*%
X145600000Y-105000000D03*
X144000000Y-105000000D03*
%TD*%
%TO.N,MOSI*%
%TO.C,J3*%
X144000000Y-101000000D03*
X145600000Y-101000000D03*
%TD*%
%TO.N,SCK*%
%TO.C,J4*%
X145600000Y-103140000D03*
X144000000Y-103140000D03*
%TD*%
%TO.N,SX_RST*%
%TO.C,J6*%
X145600000Y-106900000D03*
X144000000Y-106900000D03*
%TD*%
%TO.N,MISO*%
%TO.C,J2*%
X145600000Y-99000000D03*
X144000000Y-99000000D03*
%TD*%
%TO.N,GND*%
%TO.C,J8*%
X145600000Y-111000000D03*
X144000000Y-111000000D03*
%TD*%
%TO.N,GND*%
%TO.C,J1*%
X144000000Y-97000000D03*
X145600000Y-97000000D03*
%TD*%
%TO.N,unconnected-(J7-Pad1)*%
%TO.C,J7*%
X144000000Y-109000000D03*
X145600000Y-109000000D03*
%TD*%
D11*
%TO.N,+3V3*%
X148600000Y-105600000D03*
%TO.N,GND*%
X155000000Y-111200000D03*
X153500000Y-107600000D03*
X156200000Y-111200000D03*
X146400000Y-98000000D03*
X157600000Y-106100000D03*
X146400000Y-102100000D03*
X146400000Y-104100000D03*
X152300000Y-108800000D03*
X153500000Y-100000000D03*
X146400000Y-106000000D03*
X151900000Y-101500000D03*
X155800000Y-108700000D03*
X157400000Y-108800000D03*
X148900000Y-107500000D03*
X157500000Y-100000000D03*
X152300000Y-106500000D03*
X152300000Y-107700000D03*
X151200000Y-107600000D03*
X157500000Y-102100000D03*
X157500000Y-103900000D03*
X146400000Y-110000000D03*
X146400000Y-100000000D03*
X147700000Y-109800000D03*
D12*
%TO.N,+3V3*%
X156100000Y-102800000D03*
D11*
X149700000Y-109900000D03*
%TO.N,Net-(U1-Pad16)*%
X150200000Y-110900000D03*
X149700000Y-97300000D03*
%TO.N,Net-(U1-Pad17)*%
X149500000Y-99200000D03*
X151100000Y-111400000D03*
%TO.N,Net-(U1-Pad18)*%
X150600000Y-100900000D03*
X151900000Y-110700000D03*
%TO.N,Net-(U1-Pad19)*%
X152900000Y-110700000D03*
X150600469Y-102300000D03*
%TO.N,Net-(U1-Pad3)*%
X148700000Y-104200000D03*
X150700000Y-98500000D03*
%TO.N,SX_BUSY*%
X156640835Y-104897033D03*
X153000000Y-104200000D03*
%TO.N,SX_DIO1*%
X152085383Y-104258333D03*
X156799500Y-98800000D03*
%TO.N,SX_DIO2*%
X151700000Y-103500000D03*
X156100000Y-97300000D03*
%TO.N,SX_DIO3*%
X150937283Y-103372360D03*
X156500000Y-107900000D03*
%TD*%
%TA.AperFunction,Conductor*%
%TO.N,+3V3*%
G36*
X149021080Y-96628002D02*
G01*
X149067573Y-96681658D01*
X149077677Y-96751932D01*
X149058870Y-96802254D01*
X148971235Y-96938238D01*
X148968826Y-96944858D01*
X148968824Y-96944861D01*
X148948755Y-97000000D01*
X148909197Y-97108685D01*
X148886463Y-97288640D01*
X148904163Y-97469160D01*
X148961418Y-97641273D01*
X148965065Y-97647295D01*
X148965066Y-97647297D01*
X149036637Y-97765475D01*
X149055380Y-97796424D01*
X149060269Y-97801487D01*
X149060270Y-97801488D01*
X149122490Y-97865918D01*
X149181382Y-97926902D01*
X149234527Y-97961679D01*
X149308741Y-98010243D01*
X149333159Y-98026222D01*
X149339763Y-98028678D01*
X149339765Y-98028679D01*
X149496558Y-98086990D01*
X149496560Y-98086990D01*
X149503168Y-98089448D01*
X149586057Y-98100508D01*
X149675980Y-98112507D01*
X149675984Y-98112507D01*
X149682961Y-98113438D01*
X149689972Y-98112800D01*
X149689976Y-98112800D01*
X149792719Y-98103449D01*
X149862372Y-98117194D01*
X149913537Y-98166415D01*
X149929968Y-98235484D01*
X149922540Y-98272024D01*
X149911607Y-98302061D01*
X149911605Y-98302069D01*
X149909197Y-98308685D01*
X149908314Y-98315676D01*
X149907229Y-98324262D01*
X149878847Y-98389339D01*
X149819787Y-98428740D01*
X149748801Y-98429957D01*
X149739974Y-98427175D01*
X149685790Y-98407881D01*
X149678802Y-98407048D01*
X149678799Y-98407047D01*
X149530293Y-98389339D01*
X149505680Y-98386404D01*
X149498677Y-98387140D01*
X149498676Y-98387140D01*
X149332288Y-98404628D01*
X149332286Y-98404629D01*
X149325288Y-98405364D01*
X149153579Y-98463818D01*
X149114742Y-98487711D01*
X149005095Y-98555166D01*
X149005092Y-98555168D01*
X148999088Y-98558862D01*
X148994053Y-98563793D01*
X148994050Y-98563795D01*
X148874525Y-98680843D01*
X148869493Y-98685771D01*
X148771235Y-98838238D01*
X148768826Y-98844858D01*
X148768824Y-98844861D01*
X148726134Y-98962151D01*
X148709197Y-99008685D01*
X148686463Y-99188640D01*
X148704163Y-99369160D01*
X148761418Y-99541273D01*
X148765065Y-99547295D01*
X148765066Y-99547297D01*
X148840780Y-99672316D01*
X148855380Y-99696424D01*
X148860269Y-99701487D01*
X148860270Y-99701488D01*
X148925802Y-99769348D01*
X148981382Y-99826902D01*
X149133159Y-99926222D01*
X149139763Y-99928678D01*
X149139765Y-99928679D01*
X149296558Y-99986990D01*
X149296560Y-99986990D01*
X149303168Y-99989448D01*
X149382250Y-100000000D01*
X149475980Y-100012507D01*
X149475984Y-100012507D01*
X149482961Y-100013438D01*
X149489972Y-100012800D01*
X149489976Y-100012800D01*
X149632459Y-99999832D01*
X149663600Y-99996998D01*
X149670302Y-99994820D01*
X149670304Y-99994820D01*
X149689324Y-99988640D01*
X152686463Y-99988640D01*
X152704163Y-100169160D01*
X152761418Y-100341273D01*
X152765065Y-100347295D01*
X152765066Y-100347297D01*
X152844120Y-100477831D01*
X152855380Y-100496424D01*
X152860269Y-100501487D01*
X152860270Y-100501488D01*
X152899845Y-100542469D01*
X152981382Y-100626902D01*
X152987278Y-100630760D01*
X153108741Y-100710243D01*
X153133159Y-100726222D01*
X153139763Y-100728678D01*
X153139765Y-100728679D01*
X153296558Y-100786990D01*
X153296560Y-100786990D01*
X153303168Y-100789448D01*
X153386995Y-100800633D01*
X153475980Y-100812507D01*
X153475984Y-100812507D01*
X153482961Y-100813438D01*
X153489972Y-100812800D01*
X153489976Y-100812800D01*
X153632459Y-100799832D01*
X153663600Y-100796998D01*
X153670302Y-100794820D01*
X153670304Y-100794820D01*
X153829409Y-100743124D01*
X153829412Y-100743123D01*
X153836108Y-100740947D01*
X153991912Y-100648069D01*
X154123266Y-100522982D01*
X154223643Y-100371902D01*
X154275826Y-100234532D01*
X154285555Y-100208920D01*
X154285556Y-100208918D01*
X154288055Y-100202338D01*
X154289035Y-100195366D01*
X154312748Y-100026639D01*
X154312748Y-100026636D01*
X154313299Y-100022717D01*
X154313616Y-100000000D01*
X154293397Y-99819745D01*
X154291080Y-99813091D01*
X154236064Y-99655106D01*
X154236062Y-99655103D01*
X154233745Y-99648448D01*
X154223662Y-99632312D01*
X154141359Y-99500598D01*
X154137626Y-99494624D01*
X154123941Y-99480843D01*
X154014778Y-99370915D01*
X154014774Y-99370912D01*
X154009815Y-99365918D01*
X153998697Y-99358862D01*
X153901214Y-99296998D01*
X153856666Y-99268727D01*
X153827463Y-99258328D01*
X153692425Y-99210243D01*
X153692420Y-99210242D01*
X153685790Y-99207881D01*
X153678802Y-99207048D01*
X153678799Y-99207047D01*
X153555698Y-99192368D01*
X153505680Y-99186404D01*
X153498677Y-99187140D01*
X153498676Y-99187140D01*
X153332288Y-99204628D01*
X153332286Y-99204629D01*
X153325288Y-99205364D01*
X153153579Y-99263818D01*
X153147575Y-99267512D01*
X153005095Y-99355166D01*
X153005092Y-99355168D01*
X152999088Y-99358862D01*
X152994053Y-99363793D01*
X152994050Y-99363795D01*
X152934783Y-99421834D01*
X152869493Y-99485771D01*
X152771235Y-99638238D01*
X152768826Y-99644858D01*
X152768824Y-99644861D01*
X152711607Y-99802063D01*
X152709197Y-99808685D01*
X152686463Y-99988640D01*
X149689324Y-99988640D01*
X149829409Y-99943124D01*
X149829412Y-99943123D01*
X149836108Y-99940947D01*
X149991912Y-99848069D01*
X150123266Y-99722982D01*
X150223643Y-99571902D01*
X150265423Y-99461917D01*
X150285555Y-99408920D01*
X150285556Y-99408918D01*
X150288055Y-99402338D01*
X150292007Y-99374217D01*
X150321294Y-99309543D01*
X150380898Y-99270970D01*
X150451894Y-99270743D01*
X150460694Y-99273652D01*
X150503168Y-99289448D01*
X150586995Y-99300633D01*
X150675980Y-99312507D01*
X150675984Y-99312507D01*
X150682961Y-99313438D01*
X150689972Y-99312800D01*
X150689976Y-99312800D01*
X150832459Y-99299832D01*
X150863600Y-99296998D01*
X150870302Y-99294820D01*
X150870304Y-99294820D01*
X151029409Y-99243124D01*
X151029412Y-99243123D01*
X151036108Y-99240947D01*
X151152269Y-99171701D01*
X151185860Y-99151677D01*
X151185862Y-99151676D01*
X151191912Y-99148069D01*
X151323266Y-99022982D01*
X151423643Y-98871902D01*
X151488055Y-98702338D01*
X151513299Y-98522717D01*
X151513616Y-98500000D01*
X151493397Y-98319745D01*
X151490850Y-98312430D01*
X151436064Y-98155106D01*
X151436062Y-98155103D01*
X151433745Y-98148448D01*
X151430009Y-98142469D01*
X151341359Y-98000598D01*
X151337626Y-97994624D01*
X151291395Y-97948069D01*
X151214778Y-97870915D01*
X151214774Y-97870912D01*
X151209815Y-97865918D01*
X151178838Y-97846259D01*
X151137058Y-97819745D01*
X151056666Y-97768727D01*
X151027463Y-97758328D01*
X150892425Y-97710243D01*
X150892420Y-97710242D01*
X150885790Y-97707881D01*
X150878802Y-97707048D01*
X150878799Y-97707047D01*
X150755698Y-97692368D01*
X150705680Y-97686404D01*
X150698677Y-97687140D01*
X150698675Y-97687140D01*
X150609865Y-97696474D01*
X150540027Y-97683702D01*
X150488180Y-97635199D01*
X150470786Y-97566366D01*
X150478907Y-97526420D01*
X150485555Y-97508920D01*
X150485556Y-97508918D01*
X150488055Y-97502338D01*
X150489139Y-97494624D01*
X150512748Y-97326639D01*
X150512748Y-97326636D01*
X150513299Y-97322717D01*
X150513616Y-97300000D01*
X150493397Y-97119745D01*
X150489601Y-97108845D01*
X150436064Y-96955106D01*
X150436062Y-96955103D01*
X150433745Y-96948448D01*
X150354646Y-96821862D01*
X150341466Y-96800769D01*
X150322330Y-96732400D01*
X150343196Y-96664539D01*
X150397437Y-96618731D01*
X150448320Y-96608000D01*
X155352959Y-96608000D01*
X155421080Y-96628002D01*
X155467573Y-96681658D01*
X155477677Y-96751932D01*
X155458870Y-96802254D01*
X155371235Y-96938238D01*
X155368826Y-96944858D01*
X155368824Y-96944861D01*
X155348755Y-97000000D01*
X155309197Y-97108685D01*
X155286463Y-97288640D01*
X155304163Y-97469160D01*
X155361418Y-97641273D01*
X155365065Y-97647295D01*
X155365066Y-97647297D01*
X155436637Y-97765475D01*
X155455380Y-97796424D01*
X155460269Y-97801487D01*
X155460270Y-97801488D01*
X155522490Y-97865918D01*
X155581382Y-97926902D01*
X155634527Y-97961679D01*
X155708741Y-98010243D01*
X155733159Y-98026222D01*
X155739763Y-98028678D01*
X155739765Y-98028679D01*
X155896558Y-98086990D01*
X155896560Y-98086990D01*
X155903168Y-98089448D01*
X156037481Y-98107369D01*
X156067649Y-98111395D01*
X156132526Y-98140231D01*
X156171514Y-98199564D01*
X156172234Y-98270557D01*
X156156898Y-98304539D01*
X156070735Y-98438238D01*
X156068326Y-98444858D01*
X156068324Y-98444861D01*
X156038559Y-98526639D01*
X156008697Y-98608685D01*
X155985963Y-98788640D01*
X156003663Y-98969160D01*
X156060918Y-99141273D01*
X156064565Y-99147295D01*
X156064566Y-99147297D01*
X156151220Y-99290380D01*
X156154880Y-99296424D01*
X156159769Y-99301487D01*
X156159770Y-99301488D01*
X156218352Y-99362151D01*
X156280882Y-99426902D01*
X156432659Y-99526222D01*
X156439263Y-99528678D01*
X156439265Y-99528679D01*
X156596058Y-99586990D01*
X156596060Y-99586990D01*
X156602668Y-99589448D01*
X156618476Y-99591557D01*
X156625030Y-99592432D01*
X156689907Y-99621270D01*
X156728893Y-99680604D01*
X156729613Y-99751597D01*
X156726764Y-99760419D01*
X156711607Y-99802063D01*
X156709197Y-99808685D01*
X156686463Y-99988640D01*
X156704163Y-100169160D01*
X156761418Y-100341273D01*
X156765065Y-100347295D01*
X156765066Y-100347297D01*
X156844120Y-100477831D01*
X156855380Y-100496424D01*
X156860269Y-100501487D01*
X156860270Y-100501488D01*
X156899845Y-100542469D01*
X156981382Y-100626902D01*
X156987278Y-100630760D01*
X157108741Y-100710243D01*
X157133159Y-100726222D01*
X157139763Y-100728678D01*
X157139765Y-100728679D01*
X157296558Y-100786990D01*
X157296560Y-100786990D01*
X157303168Y-100789448D01*
X157310153Y-100790380D01*
X157310157Y-100790381D01*
X157359751Y-100796998D01*
X157409121Y-100803585D01*
X157473997Y-100832420D01*
X157512985Y-100891754D01*
X157517766Y-100941649D01*
X157511633Y-101000000D01*
X157527936Y-101155106D01*
X157528171Y-101157345D01*
X157515399Y-101227184D01*
X157466897Y-101279030D01*
X157416032Y-101295826D01*
X157332288Y-101304628D01*
X157332286Y-101304629D01*
X157325288Y-101305364D01*
X157153579Y-101363818D01*
X157147575Y-101367512D01*
X157005095Y-101455166D01*
X157005092Y-101455168D01*
X156999088Y-101458862D01*
X156994053Y-101463793D01*
X156994050Y-101463795D01*
X156874525Y-101580843D01*
X156869493Y-101585771D01*
X156771235Y-101738238D01*
X156768826Y-101744858D01*
X156768824Y-101744861D01*
X156712449Y-101899749D01*
X156709197Y-101908685D01*
X156686463Y-102088640D01*
X156704163Y-102269160D01*
X156761418Y-102441273D01*
X156765065Y-102447295D01*
X156765066Y-102447297D01*
X156850032Y-102587593D01*
X156855380Y-102596424D01*
X156860269Y-102601487D01*
X156860270Y-102601488D01*
X156881027Y-102622982D01*
X156981382Y-102726902D01*
X157133159Y-102826222D01*
X157139763Y-102828678D01*
X157139765Y-102828679D01*
X157285198Y-102882765D01*
X157342074Y-102925257D01*
X157366948Y-102991754D01*
X157351923Y-103061142D01*
X157301768Y-103111392D01*
X157281883Y-103120140D01*
X157160250Y-103161547D01*
X157153579Y-103163818D01*
X157136336Y-103174426D01*
X157005095Y-103255166D01*
X157005092Y-103255168D01*
X156999088Y-103258862D01*
X156994053Y-103263793D01*
X156994050Y-103263795D01*
X156874525Y-103380843D01*
X156869493Y-103385771D01*
X156771235Y-103538238D01*
X156768826Y-103544858D01*
X156768824Y-103544861D01*
X156714315Y-103694624D01*
X156709197Y-103708685D01*
X156686463Y-103888640D01*
X156690204Y-103926790D01*
X156692751Y-103952767D01*
X156679492Y-104022515D01*
X156630629Y-104074022D01*
X156580523Y-104090373D01*
X156473123Y-104101661D01*
X156473121Y-104101662D01*
X156466123Y-104102397D01*
X156294414Y-104160851D01*
X156237180Y-104196062D01*
X156145930Y-104252199D01*
X156145927Y-104252201D01*
X156139923Y-104255895D01*
X156134888Y-104260826D01*
X156134885Y-104260828D01*
X156017435Y-104375844D01*
X156010328Y-104382804D01*
X155912070Y-104535271D01*
X155909661Y-104541891D01*
X155909659Y-104541894D01*
X155878377Y-104627841D01*
X155850032Y-104705718D01*
X155827298Y-104885673D01*
X155844998Y-105066193D01*
X155902253Y-105238306D01*
X155905900Y-105244328D01*
X155905901Y-105244330D01*
X155988889Y-105381360D01*
X155996215Y-105393457D01*
X156122217Y-105523935D01*
X156273994Y-105623255D01*
X156280598Y-105625711D01*
X156280600Y-105625712D01*
X156437393Y-105684023D01*
X156437395Y-105684023D01*
X156444003Y-105686481D01*
X156527830Y-105697666D01*
X156616815Y-105709540D01*
X156616819Y-105709540D01*
X156623796Y-105710471D01*
X156630807Y-105709833D01*
X156630811Y-105709833D01*
X156692437Y-105704224D01*
X156762090Y-105717969D01*
X156813255Y-105767190D01*
X156829686Y-105836259D01*
X156822258Y-105872799D01*
X156811607Y-105902063D01*
X156809197Y-105908685D01*
X156786463Y-106088640D01*
X156804163Y-106269160D01*
X156861418Y-106441273D01*
X156865065Y-106447295D01*
X156865066Y-106447297D01*
X156920403Y-106538669D01*
X156955380Y-106596424D01*
X156960269Y-106601487D01*
X156960270Y-106601488D01*
X157024345Y-106667839D01*
X157081382Y-106726902D01*
X157102845Y-106740947D01*
X157208741Y-106810243D01*
X157233159Y-106826222D01*
X157239763Y-106828678D01*
X157239765Y-106828679D01*
X157310987Y-106855166D01*
X157403168Y-106889448D01*
X157410154Y-106890380D01*
X157416927Y-106892069D01*
X157478185Y-106927957D01*
X157510316Y-106991267D01*
X157511754Y-107001155D01*
X157527935Y-107155106D01*
X157531046Y-107184702D01*
X157533086Y-107190980D01*
X157533086Y-107190981D01*
X157553941Y-107255166D01*
X157588436Y-107361331D01*
X157591739Y-107367053D01*
X157591740Y-107367054D01*
X157607658Y-107394624D01*
X157681296Y-107522169D01*
X157685714Y-107527076D01*
X157685715Y-107527077D01*
X157768264Y-107618757D01*
X157805566Y-107660185D01*
X157810908Y-107664066D01*
X157810910Y-107664068D01*
X157945910Y-107762151D01*
X157955816Y-107769348D01*
X157961844Y-107772032D01*
X157961846Y-107772033D01*
X158119448Y-107842202D01*
X158125479Y-107844887D01*
X158275398Y-107876753D01*
X158337871Y-107910481D01*
X158372193Y-107972631D01*
X158367465Y-108043470D01*
X158325189Y-108100508D01*
X158275398Y-108123247D01*
X158125479Y-108155113D01*
X158119450Y-108157797D01*
X158119448Y-108157798D01*
X158047483Y-108189839D01*
X157977116Y-108199273D01*
X157917285Y-108172931D01*
X157914776Y-108170914D01*
X157909815Y-108165918D01*
X157881690Y-108148069D01*
X157842158Y-108122982D01*
X157756666Y-108068727D01*
X157685736Y-108043470D01*
X157592425Y-108010243D01*
X157592420Y-108010242D01*
X157585790Y-108007881D01*
X157578802Y-108007048D01*
X157578799Y-108007047D01*
X157421355Y-107988273D01*
X157356082Y-107960345D01*
X157316269Y-107901562D01*
X157311059Y-107877204D01*
X157294182Y-107726744D01*
X157293397Y-107719745D01*
X157291056Y-107713023D01*
X157236064Y-107555106D01*
X157236062Y-107555103D01*
X157233745Y-107548448D01*
X157225888Y-107535874D01*
X157141359Y-107400598D01*
X157137626Y-107394624D01*
X157128835Y-107385771D01*
X157014778Y-107270915D01*
X157014774Y-107270912D01*
X157009815Y-107265918D01*
X156998697Y-107258862D01*
X156950538Y-107228300D01*
X156856666Y-107168727D01*
X156799716Y-107148448D01*
X156692425Y-107110243D01*
X156692420Y-107110242D01*
X156685790Y-107107881D01*
X156678802Y-107107048D01*
X156678799Y-107107047D01*
X156555698Y-107092368D01*
X156505680Y-107086404D01*
X156498677Y-107087140D01*
X156498676Y-107087140D01*
X156332288Y-107104628D01*
X156332286Y-107104629D01*
X156325288Y-107105364D01*
X156153579Y-107163818D01*
X156091109Y-107202250D01*
X156005095Y-107255166D01*
X156005092Y-107255168D01*
X155999088Y-107258862D01*
X155994053Y-107263793D01*
X155994050Y-107263795D01*
X155936916Y-107319745D01*
X155869493Y-107385771D01*
X155771235Y-107538238D01*
X155768826Y-107544858D01*
X155768824Y-107544861D01*
X155722537Y-107672033D01*
X155709197Y-107708685D01*
X155698247Y-107795366D01*
X155696873Y-107806241D01*
X155668491Y-107871317D01*
X155612472Y-107909727D01*
X155453579Y-107963818D01*
X155447575Y-107967512D01*
X155305095Y-108055166D01*
X155305092Y-108055168D01*
X155299088Y-108058862D01*
X155294053Y-108063793D01*
X155294050Y-108063795D01*
X155174525Y-108180843D01*
X155169493Y-108185771D01*
X155071235Y-108338238D01*
X155068826Y-108344858D01*
X155068824Y-108344861D01*
X155022213Y-108472923D01*
X155009197Y-108508685D01*
X154986463Y-108688640D01*
X155004163Y-108869160D01*
X155061418Y-109041273D01*
X155065065Y-109047295D01*
X155065066Y-109047297D01*
X155144085Y-109177773D01*
X155155380Y-109196424D01*
X155281382Y-109326902D01*
X155433159Y-109426222D01*
X155439763Y-109428678D01*
X155439765Y-109428679D01*
X155596558Y-109486990D01*
X155596560Y-109486990D01*
X155603168Y-109489448D01*
X155686995Y-109500633D01*
X155775980Y-109512507D01*
X155775984Y-109512507D01*
X155782961Y-109513438D01*
X155789972Y-109512800D01*
X155789976Y-109512800D01*
X155932459Y-109499832D01*
X155963600Y-109496998D01*
X155970302Y-109494820D01*
X155970304Y-109494820D01*
X156129409Y-109443124D01*
X156129412Y-109443123D01*
X156136108Y-109440947D01*
X156269665Y-109361331D01*
X156285860Y-109351677D01*
X156285862Y-109351676D01*
X156291912Y-109348069D01*
X156423266Y-109222982D01*
X156463868Y-109161871D01*
X156518226Y-109116201D01*
X156588646Y-109107169D01*
X156652770Y-109137643D01*
X156676591Y-109166327D01*
X156701757Y-109207881D01*
X156751264Y-109289627D01*
X156755380Y-109296424D01*
X156760269Y-109301487D01*
X156760270Y-109301488D01*
X156812743Y-109355825D01*
X156881382Y-109426902D01*
X156887278Y-109430760D01*
X157015254Y-109514505D01*
X157033159Y-109526222D01*
X157039763Y-109528678D01*
X157039765Y-109528679D01*
X157196558Y-109586990D01*
X157196560Y-109586990D01*
X157203168Y-109589448D01*
X157286995Y-109600633D01*
X157375980Y-109612507D01*
X157375984Y-109612507D01*
X157382961Y-109613438D01*
X157389972Y-109612800D01*
X157389976Y-109612800D01*
X157532459Y-109599832D01*
X157563600Y-109596998D01*
X157628964Y-109575760D01*
X157699930Y-109573732D01*
X157761533Y-109611281D01*
X157805566Y-109660185D01*
X157810908Y-109664066D01*
X157810910Y-109664068D01*
X157892000Y-109722983D01*
X157955816Y-109769348D01*
X157961844Y-109772032D01*
X157961846Y-109772033D01*
X158084493Y-109826639D01*
X158125479Y-109844887D01*
X158275398Y-109876753D01*
X158337871Y-109910481D01*
X158372193Y-109972631D01*
X158367465Y-110043470D01*
X158325189Y-110100508D01*
X158275398Y-110123247D01*
X158125479Y-110155113D01*
X158119450Y-110157797D01*
X158119448Y-110157798D01*
X157961847Y-110227967D01*
X157961845Y-110227968D01*
X157955817Y-110230652D01*
X157950476Y-110234532D01*
X157950475Y-110234533D01*
X157810910Y-110335932D01*
X157810908Y-110335934D01*
X157805566Y-110339815D01*
X157801145Y-110344725D01*
X157801144Y-110344726D01*
X157686091Y-110472506D01*
X157681296Y-110477831D01*
X157588436Y-110638669D01*
X157531046Y-110815298D01*
X157530356Y-110821861D01*
X157530356Y-110821862D01*
X157523337Y-110888640D01*
X157511633Y-111000000D01*
X157512323Y-111006565D01*
X157519605Y-111075844D01*
X157531046Y-111184702D01*
X157533086Y-111190980D01*
X157533086Y-111190981D01*
X157549427Y-111241273D01*
X157588436Y-111361331D01*
X157612495Y-111403002D01*
X157629232Y-111471994D01*
X157606012Y-111539086D01*
X157550205Y-111582974D01*
X157503375Y-111592000D01*
X157098657Y-111592000D01*
X157030536Y-111571998D01*
X156984043Y-111518342D01*
X156973939Y-111448068D01*
X156980868Y-111421258D01*
X156985555Y-111408919D01*
X156988055Y-111402338D01*
X156994318Y-111357772D01*
X157012748Y-111226639D01*
X157012748Y-111226636D01*
X157013299Y-111222717D01*
X157013616Y-111200000D01*
X156993397Y-111019745D01*
X156991080Y-111013091D01*
X156936064Y-110855106D01*
X156936062Y-110855103D01*
X156933745Y-110848448D01*
X156837626Y-110694624D01*
X156823941Y-110680843D01*
X156714778Y-110570915D01*
X156714774Y-110570912D01*
X156709815Y-110565918D01*
X156698697Y-110558862D01*
X156632907Y-110517111D01*
X156556666Y-110468727D01*
X156508784Y-110451677D01*
X156392425Y-110410243D01*
X156392420Y-110410242D01*
X156385790Y-110407881D01*
X156378802Y-110407048D01*
X156378799Y-110407047D01*
X156255698Y-110392368D01*
X156205680Y-110386404D01*
X156198677Y-110387140D01*
X156198676Y-110387140D01*
X156032288Y-110404628D01*
X156032286Y-110404629D01*
X156025288Y-110405364D01*
X155853579Y-110463818D01*
X155821507Y-110483549D01*
X155705095Y-110555166D01*
X155705092Y-110555168D01*
X155699088Y-110558862D01*
X155688977Y-110568764D01*
X155626314Y-110602135D01*
X155555555Y-110596331D01*
X155521338Y-110574005D01*
X155520271Y-110575332D01*
X155514777Y-110570915D01*
X155509815Y-110565918D01*
X155498697Y-110558862D01*
X155432907Y-110517111D01*
X155356666Y-110468727D01*
X155308784Y-110451677D01*
X155192425Y-110410243D01*
X155192420Y-110410242D01*
X155185790Y-110407881D01*
X155178802Y-110407048D01*
X155178799Y-110407047D01*
X155055698Y-110392368D01*
X155005680Y-110386404D01*
X154998677Y-110387140D01*
X154998676Y-110387140D01*
X154832288Y-110404628D01*
X154832286Y-110404629D01*
X154825288Y-110405364D01*
X154653579Y-110463818D01*
X154621507Y-110483549D01*
X154505095Y-110555166D01*
X154505092Y-110555168D01*
X154499088Y-110558862D01*
X154494053Y-110563793D01*
X154494050Y-110563795D01*
X154374525Y-110680843D01*
X154369493Y-110685771D01*
X154271235Y-110838238D01*
X154268826Y-110844858D01*
X154268824Y-110844861D01*
X154212358Y-111000000D01*
X154209197Y-111008685D01*
X154186463Y-111188640D01*
X154204163Y-111369160D01*
X154208929Y-111383488D01*
X154223147Y-111426228D01*
X154225670Y-111497180D01*
X154189433Y-111558232D01*
X154125941Y-111590002D01*
X154103589Y-111592000D01*
X153440154Y-111592000D01*
X153372033Y-111571998D01*
X153325540Y-111518342D01*
X153315436Y-111448068D01*
X153344930Y-111383488D01*
X153375636Y-111357772D01*
X153385857Y-111351679D01*
X153385860Y-111351677D01*
X153391912Y-111348069D01*
X153523266Y-111222982D01*
X153623643Y-111071902D01*
X153665423Y-110961917D01*
X153685555Y-110908920D01*
X153685556Y-110908918D01*
X153688055Y-110902338D01*
X153690963Y-110881646D01*
X153712748Y-110726639D01*
X153712748Y-110726636D01*
X153713299Y-110722717D01*
X153713616Y-110700000D01*
X153693397Y-110519745D01*
X153691080Y-110513091D01*
X153636064Y-110355106D01*
X153636062Y-110355103D01*
X153633745Y-110348448D01*
X153589110Y-110277017D01*
X153541359Y-110200598D01*
X153537626Y-110194624D01*
X153508520Y-110165314D01*
X153414778Y-110070915D01*
X153414774Y-110070912D01*
X153409815Y-110065918D01*
X153398935Y-110059013D01*
X153349071Y-110027369D01*
X153256666Y-109968727D01*
X153222413Y-109956530D01*
X153092425Y-109910243D01*
X153092420Y-109910242D01*
X153085790Y-109907881D01*
X153078802Y-109907048D01*
X153078799Y-109907047D01*
X152955698Y-109892368D01*
X152905680Y-109886404D01*
X152898677Y-109887140D01*
X152898676Y-109887140D01*
X152732288Y-109904628D01*
X152732286Y-109904629D01*
X152725288Y-109905364D01*
X152553579Y-109963818D01*
X152465946Y-110017731D01*
X152397447Y-110036388D01*
X152332412Y-110016797D01*
X152262620Y-109972505D01*
X152262616Y-109972503D01*
X152256666Y-109968727D01*
X152222413Y-109956530D01*
X152092425Y-109910243D01*
X152092420Y-109910242D01*
X152085790Y-109907881D01*
X152078802Y-109907048D01*
X152078799Y-109907047D01*
X151955698Y-109892368D01*
X151905680Y-109886404D01*
X151898677Y-109887140D01*
X151898676Y-109887140D01*
X151732288Y-109904628D01*
X151732286Y-109904629D01*
X151725288Y-109905364D01*
X151553579Y-109963818D01*
X151547575Y-109967512D01*
X151405095Y-110055166D01*
X151405092Y-110055168D01*
X151399088Y-110058862D01*
X151394053Y-110063793D01*
X151394050Y-110063795D01*
X151277660Y-110177773D01*
X151269493Y-110185771D01*
X151171235Y-110338238D01*
X151168826Y-110344858D01*
X151168824Y-110344861D01*
X151123828Y-110468487D01*
X151081734Y-110525658D01*
X151015412Y-110550996D01*
X150945921Y-110536455D01*
X150898573Y-110492161D01*
X150893846Y-110484595D01*
X150837626Y-110394624D01*
X150832664Y-110389627D01*
X150714778Y-110270915D01*
X150714774Y-110270912D01*
X150709815Y-110265918D01*
X150698697Y-110258862D01*
X150650014Y-110227967D01*
X150556666Y-110168727D01*
X150514580Y-110153741D01*
X150392425Y-110110243D01*
X150392420Y-110110242D01*
X150385790Y-110107881D01*
X150378802Y-110107048D01*
X150378799Y-110107047D01*
X150255698Y-110092368D01*
X150205680Y-110086404D01*
X150198677Y-110087140D01*
X150198676Y-110087140D01*
X150032288Y-110104628D01*
X150032286Y-110104629D01*
X150025288Y-110105364D01*
X149853579Y-110163818D01*
X149817895Y-110185771D01*
X149705095Y-110255166D01*
X149705092Y-110255168D01*
X149699088Y-110258862D01*
X149694053Y-110263793D01*
X149694050Y-110263795D01*
X149574525Y-110380843D01*
X149569493Y-110385771D01*
X149471235Y-110538238D01*
X149468826Y-110544858D01*
X149468824Y-110544861D01*
X149414315Y-110694624D01*
X149409197Y-110708685D01*
X149386463Y-110888640D01*
X149404163Y-111069160D01*
X149461418Y-111241273D01*
X149465065Y-111247295D01*
X149465066Y-111247297D01*
X149555380Y-111396424D01*
X149553928Y-111397303D01*
X149576464Y-111455303D01*
X149562318Y-111524876D01*
X149512803Y-111575756D01*
X149450919Y-111592000D01*
X146496625Y-111592000D01*
X146428504Y-111571998D01*
X146382011Y-111518342D01*
X146371907Y-111448068D01*
X146387505Y-111403003D01*
X146411564Y-111361331D01*
X146450573Y-111241273D01*
X146466914Y-111190981D01*
X146466914Y-111190980D01*
X146468954Y-111184702D01*
X146480396Y-111075844D01*
X146487677Y-111006565D01*
X146488367Y-111000000D01*
X146480885Y-110928812D01*
X146493657Y-110858974D01*
X146542159Y-110807127D01*
X146567259Y-110795809D01*
X146729409Y-110743124D01*
X146729412Y-110743123D01*
X146736108Y-110740947D01*
X146891912Y-110648069D01*
X147023266Y-110522982D01*
X147046428Y-110488120D01*
X147100785Y-110442450D01*
X147171205Y-110433417D01*
X147220368Y-110452413D01*
X147333159Y-110526222D01*
X147339763Y-110528678D01*
X147339765Y-110528679D01*
X147496558Y-110586990D01*
X147496560Y-110586990D01*
X147503168Y-110589448D01*
X147586995Y-110600633D01*
X147675980Y-110612507D01*
X147675984Y-110612507D01*
X147682961Y-110613438D01*
X147689972Y-110612800D01*
X147689976Y-110612800D01*
X147832459Y-110599832D01*
X147863600Y-110596998D01*
X147870302Y-110594820D01*
X147870304Y-110594820D01*
X148029409Y-110543124D01*
X148029412Y-110543123D01*
X148036108Y-110540947D01*
X148159296Y-110467512D01*
X148185860Y-110451677D01*
X148185862Y-110451676D01*
X148191912Y-110448069D01*
X148323266Y-110322982D01*
X148423643Y-110171902D01*
X148472430Y-110043470D01*
X148485555Y-110008920D01*
X148485556Y-110008918D01*
X148488055Y-110002338D01*
X148492779Y-109968727D01*
X148512748Y-109826639D01*
X148512748Y-109826636D01*
X148513299Y-109822717D01*
X148513616Y-109800000D01*
X148493397Y-109619745D01*
X148491080Y-109613091D01*
X148436064Y-109455106D01*
X148436062Y-109455103D01*
X148433745Y-109448448D01*
X148337626Y-109294624D01*
X148309561Y-109266362D01*
X148214778Y-109170915D01*
X148214774Y-109170912D01*
X148209815Y-109165918D01*
X148198697Y-109158862D01*
X148117241Y-109107169D01*
X148056666Y-109068727D01*
X148027463Y-109058328D01*
X147892425Y-109010243D01*
X147892420Y-109010242D01*
X147885790Y-109007881D01*
X147878802Y-109007048D01*
X147878799Y-109007047D01*
X147755698Y-108992368D01*
X147705680Y-108986404D01*
X147698677Y-108987140D01*
X147698676Y-108987140D01*
X147532288Y-109004628D01*
X147532286Y-109004629D01*
X147525288Y-109005364D01*
X147353579Y-109063818D01*
X147347575Y-109067512D01*
X147205095Y-109155166D01*
X147205092Y-109155168D01*
X147199088Y-109158862D01*
X147194053Y-109163793D01*
X147194050Y-109163795D01*
X147074526Y-109280842D01*
X147069493Y-109285771D01*
X147065679Y-109291690D01*
X147065676Y-109291693D01*
X147054264Y-109309401D01*
X147000549Y-109355825D01*
X146930262Y-109365840D01*
X146880842Y-109347531D01*
X146800310Y-109296424D01*
X146762620Y-109272505D01*
X146762617Y-109272503D01*
X146756666Y-109268727D01*
X146704826Y-109250268D01*
X146592424Y-109210243D01*
X146592422Y-109210243D01*
X146585790Y-109207881D01*
X146578801Y-109207048D01*
X146577451Y-109206731D01*
X146515698Y-109171701D01*
X146482688Y-109108845D01*
X146480916Y-109070890D01*
X146487677Y-109006565D01*
X146488367Y-109000000D01*
X146473893Y-108862286D01*
X146469644Y-108821862D01*
X146469644Y-108821861D01*
X146468954Y-108815298D01*
X146463984Y-108800000D01*
X146413606Y-108644954D01*
X146411564Y-108638669D01*
X146398289Y-108615675D01*
X146340553Y-108515675D01*
X146318704Y-108477831D01*
X146292248Y-108448448D01*
X146198856Y-108344726D01*
X146198855Y-108344725D01*
X146194434Y-108339815D01*
X146158130Y-108313438D01*
X146049526Y-108234533D01*
X146049525Y-108234532D01*
X146044184Y-108230652D01*
X146038156Y-108227968D01*
X146038154Y-108227967D01*
X145880552Y-108157798D01*
X145880551Y-108157798D01*
X145874521Y-108155113D01*
X145783691Y-108135807D01*
X145699317Y-108117872D01*
X145699313Y-108117872D01*
X145692860Y-108116500D01*
X145507140Y-108116500D01*
X145500687Y-108117872D01*
X145500683Y-108117872D01*
X145416309Y-108135807D01*
X145325479Y-108155113D01*
X145319450Y-108157797D01*
X145319448Y-108157798D01*
X145161847Y-108227967D01*
X145161845Y-108227968D01*
X145155817Y-108230652D01*
X145077599Y-108287480D01*
X145010732Y-108311339D01*
X144941581Y-108295258D01*
X144892100Y-108244344D01*
X144877542Y-108186373D01*
X144874428Y-107713023D01*
X144893981Y-107644772D01*
X144947330Y-107597927D01*
X145017536Y-107587361D01*
X145074485Y-107610258D01*
X145089561Y-107621211D01*
X145148549Y-107664068D01*
X145155816Y-107669348D01*
X145161844Y-107672032D01*
X145161846Y-107672033D01*
X145284729Y-107726744D01*
X145325479Y-107744887D01*
X145406700Y-107762151D01*
X145500683Y-107782128D01*
X145500687Y-107782128D01*
X145507140Y-107783500D01*
X145692860Y-107783500D01*
X145699313Y-107782128D01*
X145699317Y-107782128D01*
X145793300Y-107762151D01*
X145874521Y-107744887D01*
X145915271Y-107726744D01*
X146038154Y-107672033D01*
X146038156Y-107672032D01*
X146044184Y-107669348D01*
X146049526Y-107665467D01*
X146189090Y-107564068D01*
X146189092Y-107564066D01*
X146194434Y-107560185D01*
X146258853Y-107488640D01*
X148086463Y-107488640D01*
X148104163Y-107669160D01*
X148161418Y-107841273D01*
X148165065Y-107847295D01*
X148165066Y-107847297D01*
X148250444Y-107988273D01*
X148255380Y-107996424D01*
X148260269Y-108001487D01*
X148260270Y-108001488D01*
X148266444Y-108007881D01*
X148381382Y-108126902D01*
X148424493Y-108155113D01*
X148491977Y-108199273D01*
X148533159Y-108226222D01*
X148539763Y-108228678D01*
X148539765Y-108228679D01*
X148696558Y-108286990D01*
X148696560Y-108286990D01*
X148703168Y-108289448D01*
X148786995Y-108300633D01*
X148875980Y-108312507D01*
X148875984Y-108312507D01*
X148882961Y-108313438D01*
X148889972Y-108312800D01*
X148889976Y-108312800D01*
X149032459Y-108299832D01*
X149063600Y-108296998D01*
X149070302Y-108294820D01*
X149070304Y-108294820D01*
X149229409Y-108243124D01*
X149229412Y-108243123D01*
X149236108Y-108240947D01*
X149368303Y-108162143D01*
X149385860Y-108151677D01*
X149385862Y-108151676D01*
X149391912Y-108148069D01*
X149523266Y-108022982D01*
X149623643Y-107871902D01*
X149682989Y-107715674D01*
X149685555Y-107708920D01*
X149685556Y-107708918D01*
X149688055Y-107702338D01*
X149689035Y-107695366D01*
X149704034Y-107588640D01*
X150386463Y-107588640D01*
X150404163Y-107769160D01*
X150461418Y-107941273D01*
X150465065Y-107947295D01*
X150465066Y-107947297D01*
X150532632Y-108058862D01*
X150555380Y-108096424D01*
X150560269Y-108101487D01*
X150560270Y-108101488D01*
X150622490Y-108165918D01*
X150681382Y-108226902D01*
X150697333Y-108237340D01*
X150789477Y-108297637D01*
X150833159Y-108326222D01*
X150839763Y-108328678D01*
X150839765Y-108328679D01*
X150996558Y-108386990D01*
X150996560Y-108386990D01*
X151003168Y-108389448D01*
X151086995Y-108400633D01*
X151175980Y-108412507D01*
X151175984Y-108412507D01*
X151182961Y-108413438D01*
X151189972Y-108412800D01*
X151189976Y-108412800D01*
X151332459Y-108399832D01*
X151363600Y-108396998D01*
X151370300Y-108394821D01*
X151370305Y-108394820D01*
X151370408Y-108394786D01*
X151370478Y-108394784D01*
X151377201Y-108393404D01*
X151377443Y-108394585D01*
X151441375Y-108392755D01*
X151502175Y-108429415D01*
X151533503Y-108493126D01*
X151527750Y-108557711D01*
X151509197Y-108608685D01*
X151486463Y-108788640D01*
X151504163Y-108969160D01*
X151561418Y-109141273D01*
X151565065Y-109147295D01*
X151565066Y-109147297D01*
X151651264Y-109289627D01*
X151655380Y-109296424D01*
X151660269Y-109301487D01*
X151660270Y-109301488D01*
X151712743Y-109355825D01*
X151781382Y-109426902D01*
X151787278Y-109430760D01*
X151915254Y-109514505D01*
X151933159Y-109526222D01*
X151939763Y-109528678D01*
X151939765Y-109528679D01*
X152096558Y-109586990D01*
X152096560Y-109586990D01*
X152103168Y-109589448D01*
X152186995Y-109600633D01*
X152275980Y-109612507D01*
X152275984Y-109612507D01*
X152282961Y-109613438D01*
X152289972Y-109612800D01*
X152289976Y-109612800D01*
X152432459Y-109599832D01*
X152463600Y-109596998D01*
X152470302Y-109594820D01*
X152470304Y-109594820D01*
X152629409Y-109543124D01*
X152629412Y-109543123D01*
X152636108Y-109540947D01*
X152732513Y-109483478D01*
X152785860Y-109451677D01*
X152785862Y-109451676D01*
X152791912Y-109448069D01*
X152923266Y-109322982D01*
X153023643Y-109171902D01*
X153065563Y-109061547D01*
X153085555Y-109008920D01*
X153085556Y-109008918D01*
X153088055Y-109002338D01*
X153090191Y-108987140D01*
X153112748Y-108826639D01*
X153112748Y-108826636D01*
X153113299Y-108822717D01*
X153113616Y-108800000D01*
X153093397Y-108619745D01*
X153058116Y-108518432D01*
X153054603Y-108447524D01*
X153089985Y-108385972D01*
X153153027Y-108353320D01*
X153221027Y-108358900D01*
X153303168Y-108389448D01*
X153386995Y-108400633D01*
X153475980Y-108412507D01*
X153475984Y-108412507D01*
X153482961Y-108413438D01*
X153489972Y-108412800D01*
X153489976Y-108412800D01*
X153632459Y-108399832D01*
X153663600Y-108396998D01*
X153670302Y-108394820D01*
X153670304Y-108394820D01*
X153829409Y-108343124D01*
X153829412Y-108343123D01*
X153836108Y-108340947D01*
X153991912Y-108248069D01*
X154123266Y-108122982D01*
X154223643Y-107971902D01*
X154265423Y-107861917D01*
X154285555Y-107808920D01*
X154285556Y-107808918D01*
X154288055Y-107802338D01*
X154289035Y-107795366D01*
X154312748Y-107626639D01*
X154312748Y-107626636D01*
X154313299Y-107622717D01*
X154313616Y-107600000D01*
X154293397Y-107419745D01*
X154291080Y-107413091D01*
X154236064Y-107255106D01*
X154236062Y-107255103D01*
X154233745Y-107248448D01*
X154197836Y-107190981D01*
X154141359Y-107100598D01*
X154137626Y-107094624D01*
X154132664Y-107089627D01*
X154014778Y-106970915D01*
X154014774Y-106970912D01*
X154009815Y-106965918D01*
X153998697Y-106958862D01*
X153949998Y-106927957D01*
X153856666Y-106868727D01*
X153818582Y-106855166D01*
X153692425Y-106810243D01*
X153692420Y-106810242D01*
X153685790Y-106807881D01*
X153678802Y-106807048D01*
X153678799Y-106807047D01*
X153555698Y-106792368D01*
X153505680Y-106786404D01*
X153498677Y-106787140D01*
X153498676Y-106787140D01*
X153332288Y-106804628D01*
X153332286Y-106804629D01*
X153325288Y-106805364D01*
X153269076Y-106824500D01*
X153254811Y-106829356D01*
X153183879Y-106832374D01*
X153122575Y-106796563D01*
X153090363Y-106733295D01*
X153089432Y-106692542D01*
X153112748Y-106526640D01*
X153112748Y-106526635D01*
X153113299Y-106522717D01*
X153113616Y-106500000D01*
X153093397Y-106319745D01*
X153091080Y-106313091D01*
X153036064Y-106155106D01*
X153036062Y-106155103D01*
X153033745Y-106148448D01*
X153013782Y-106116500D01*
X152941359Y-106000598D01*
X152937626Y-105994624D01*
X152928835Y-105985771D01*
X152814778Y-105870915D01*
X152814774Y-105870912D01*
X152809815Y-105865918D01*
X152798697Y-105858862D01*
X152737058Y-105819745D01*
X152656666Y-105768727D01*
X152623845Y-105757040D01*
X152492425Y-105710243D01*
X152492420Y-105710242D01*
X152485790Y-105707881D01*
X152478802Y-105707048D01*
X152478799Y-105707047D01*
X152355698Y-105692368D01*
X152305680Y-105686404D01*
X152298677Y-105687140D01*
X152298676Y-105687140D01*
X152132288Y-105704628D01*
X152132286Y-105704629D01*
X152125288Y-105705364D01*
X151953579Y-105763818D01*
X151940226Y-105772033D01*
X151805095Y-105855166D01*
X151805092Y-105855168D01*
X151799088Y-105858862D01*
X151794053Y-105863793D01*
X151794050Y-105863795D01*
X151725994Y-105930441D01*
X151669493Y-105985771D01*
X151571235Y-106138238D01*
X151568826Y-106144858D01*
X151568824Y-106144861D01*
X151540992Y-106221329D01*
X151509197Y-106308685D01*
X151486463Y-106488640D01*
X151504034Y-106667841D01*
X151490775Y-106737587D01*
X151441912Y-106789094D01*
X151372959Y-106806007D01*
X151363721Y-106805249D01*
X151205680Y-106786404D01*
X151198677Y-106787140D01*
X151198676Y-106787140D01*
X151032288Y-106804628D01*
X151032286Y-106804629D01*
X151025288Y-106805364D01*
X150853579Y-106863818D01*
X150847575Y-106867512D01*
X150705095Y-106955166D01*
X150705092Y-106955168D01*
X150699088Y-106958862D01*
X150694053Y-106963793D01*
X150694050Y-106963795D01*
X150574525Y-107080843D01*
X150569493Y-107085771D01*
X150471235Y-107238238D01*
X150468826Y-107244858D01*
X150468824Y-107244861D01*
X150414315Y-107394624D01*
X150409197Y-107408685D01*
X150386463Y-107588640D01*
X149704034Y-107588640D01*
X149712748Y-107526639D01*
X149712748Y-107526636D01*
X149713299Y-107522717D01*
X149713616Y-107500000D01*
X149693397Y-107319745D01*
X149691080Y-107313091D01*
X149636064Y-107155106D01*
X149636062Y-107155103D01*
X149633745Y-107148448D01*
X149606823Y-107105364D01*
X149541359Y-107000598D01*
X149537626Y-106994624D01*
X149509120Y-106965918D01*
X149414778Y-106870915D01*
X149414774Y-106870912D01*
X149409815Y-106865918D01*
X149402928Y-106861547D01*
X149314397Y-106805364D01*
X149256666Y-106768727D01*
X149227463Y-106758328D01*
X149092425Y-106710243D01*
X149092420Y-106710242D01*
X149085790Y-106707881D01*
X149078802Y-106707048D01*
X149078799Y-106707047D01*
X148955698Y-106692368D01*
X148905680Y-106686404D01*
X148898677Y-106687140D01*
X148898676Y-106687140D01*
X148732288Y-106704628D01*
X148732286Y-106704629D01*
X148725288Y-106705364D01*
X148553579Y-106763818D01*
X148547575Y-106767512D01*
X148405095Y-106855166D01*
X148405092Y-106855168D01*
X148399088Y-106858862D01*
X148394053Y-106863793D01*
X148394050Y-106863795D01*
X148293621Y-106962143D01*
X148269493Y-106985771D01*
X148171235Y-107138238D01*
X148168826Y-107144858D01*
X148168824Y-107144861D01*
X148111606Y-107302066D01*
X148109197Y-107308685D01*
X148086463Y-107488640D01*
X146258853Y-107488640D01*
X146318704Y-107422169D01*
X146411564Y-107261331D01*
X146443986Y-107161547D01*
X146466914Y-107090981D01*
X146466914Y-107090980D01*
X146468954Y-107084702D01*
X146478730Y-106991693D01*
X146488363Y-106900042D01*
X146515376Y-106834385D01*
X146574737Y-106793380D01*
X146729408Y-106743124D01*
X146736108Y-106740947D01*
X146891912Y-106648069D01*
X147023266Y-106522982D01*
X147123643Y-106371902D01*
X147175825Y-106234533D01*
X147185555Y-106208920D01*
X147185556Y-106208918D01*
X147188055Y-106202338D01*
X147194693Y-106155106D01*
X147212748Y-106026639D01*
X147212748Y-106026636D01*
X147213299Y-106022717D01*
X147213616Y-106000000D01*
X147193397Y-105819745D01*
X147191080Y-105813091D01*
X147136064Y-105655106D01*
X147136062Y-105655103D01*
X147133745Y-105648448D01*
X147037626Y-105494624D01*
X147032664Y-105489627D01*
X146914778Y-105370915D01*
X146914774Y-105370912D01*
X146909815Y-105365918D01*
X146756666Y-105268727D01*
X146652466Y-105231623D01*
X146592424Y-105210243D01*
X146592422Y-105210243D01*
X146585790Y-105207881D01*
X146578801Y-105207048D01*
X146577451Y-105206731D01*
X146515698Y-105171701D01*
X146482688Y-105108845D01*
X146480916Y-105070889D01*
X146488363Y-105000041D01*
X146515377Y-104934385D01*
X146574737Y-104893380D01*
X146729408Y-104843124D01*
X146736108Y-104840947D01*
X146891912Y-104748069D01*
X147023266Y-104622982D01*
X147123643Y-104471902D01*
X147175825Y-104334533D01*
X147185555Y-104308920D01*
X147185556Y-104308918D01*
X147188055Y-104302338D01*
X147192054Y-104273885D01*
X147204034Y-104188640D01*
X147886463Y-104188640D01*
X147904163Y-104369160D01*
X147961418Y-104541273D01*
X147965065Y-104547295D01*
X147965066Y-104547297D01*
X148020403Y-104638669D01*
X148055380Y-104696424D01*
X148060269Y-104701487D01*
X148060270Y-104701488D01*
X148111712Y-104754757D01*
X148181382Y-104826902D01*
X148187278Y-104830760D01*
X148323269Y-104919750D01*
X148333159Y-104926222D01*
X148339763Y-104928678D01*
X148339765Y-104928679D01*
X148496558Y-104986990D01*
X148496560Y-104986990D01*
X148503168Y-104989448D01*
X148576854Y-104999280D01*
X148675980Y-105012507D01*
X148675984Y-105012507D01*
X148682961Y-105013438D01*
X148689972Y-105012800D01*
X148689976Y-105012800D01*
X148838526Y-104999280D01*
X148863600Y-104996998D01*
X148870302Y-104994820D01*
X148870304Y-104994820D01*
X149029409Y-104943124D01*
X149029412Y-104943123D01*
X149036108Y-104940947D01*
X149191912Y-104848069D01*
X149323266Y-104722982D01*
X149423643Y-104571902D01*
X149475666Y-104434952D01*
X149485555Y-104408920D01*
X149485556Y-104408918D01*
X149488055Y-104402338D01*
X149489035Y-104395366D01*
X149512748Y-104226639D01*
X149512748Y-104226636D01*
X149513299Y-104222717D01*
X149513616Y-104200000D01*
X149493397Y-104019745D01*
X149491080Y-104013091D01*
X149436064Y-103855106D01*
X149436062Y-103855103D01*
X149433745Y-103848448D01*
X149337626Y-103694624D01*
X149323941Y-103680843D01*
X149214778Y-103570915D01*
X149214774Y-103570912D01*
X149209815Y-103565918D01*
X149198697Y-103558862D01*
X149139603Y-103521360D01*
X149056666Y-103468727D01*
X149027463Y-103458328D01*
X148892425Y-103410243D01*
X148892420Y-103410242D01*
X148885790Y-103407881D01*
X148878802Y-103407048D01*
X148878799Y-103407047D01*
X148755698Y-103392368D01*
X148705680Y-103386404D01*
X148698677Y-103387140D01*
X148698676Y-103387140D01*
X148532288Y-103404628D01*
X148532286Y-103404629D01*
X148525288Y-103405364D01*
X148353579Y-103463818D01*
X148347575Y-103467512D01*
X148205095Y-103555166D01*
X148205092Y-103555168D01*
X148199088Y-103558862D01*
X148194053Y-103563793D01*
X148194050Y-103563795D01*
X148083109Y-103672437D01*
X148069493Y-103685771D01*
X147971235Y-103838238D01*
X147968826Y-103844858D01*
X147968824Y-103844861D01*
X147928776Y-103954893D01*
X147909197Y-104008685D01*
X147886463Y-104188640D01*
X147204034Y-104188640D01*
X147212748Y-104126639D01*
X147212748Y-104126636D01*
X147213299Y-104122717D01*
X147213616Y-104100000D01*
X147193397Y-103919745D01*
X147191080Y-103913091D01*
X147136064Y-103755106D01*
X147136062Y-103755103D01*
X147133745Y-103748448D01*
X147037626Y-103594624D01*
X147009120Y-103565918D01*
X146914778Y-103470915D01*
X146914774Y-103470912D01*
X146909815Y-103465918D01*
X146902928Y-103461547D01*
X146827956Y-103413969D01*
X146756666Y-103368727D01*
X146585790Y-103307881D01*
X146580846Y-103307291D01*
X146519804Y-103272666D01*
X146486791Y-103209812D01*
X146485019Y-103171853D01*
X146487677Y-103146565D01*
X146488367Y-103140000D01*
X146482734Y-103086404D01*
X146476815Y-103030085D01*
X146489587Y-102960247D01*
X146538089Y-102908400D01*
X146564058Y-102898407D01*
X146563600Y-102896998D01*
X146729409Y-102843124D01*
X146729412Y-102843123D01*
X146736108Y-102840947D01*
X146857258Y-102768727D01*
X146885860Y-102751677D01*
X146885862Y-102751676D01*
X146891912Y-102748069D01*
X147023266Y-102622982D01*
X147123643Y-102471902D01*
X147180314Y-102322717D01*
X147185555Y-102308920D01*
X147185556Y-102308918D01*
X147188055Y-102302338D01*
X147189035Y-102295366D01*
X147212748Y-102126639D01*
X147212748Y-102126636D01*
X147213299Y-102122717D01*
X147213616Y-102100000D01*
X147193397Y-101919745D01*
X147191080Y-101913091D01*
X147136064Y-101755106D01*
X147136062Y-101755103D01*
X147133745Y-101748448D01*
X147081019Y-101664068D01*
X147041359Y-101600598D01*
X147037626Y-101594624D01*
X147022701Y-101579594D01*
X146914778Y-101470915D01*
X146914774Y-101470912D01*
X146909815Y-101465918D01*
X146898697Y-101458862D01*
X146808289Y-101401488D01*
X146756666Y-101368727D01*
X146727463Y-101358328D01*
X146592425Y-101310243D01*
X146592420Y-101310242D01*
X146585790Y-101307881D01*
X146578801Y-101307048D01*
X146571934Y-101305437D01*
X146572361Y-101303616D01*
X146515720Y-101279382D01*
X146475907Y-101220599D01*
X146470602Y-101169025D01*
X146487677Y-101006566D01*
X146487677Y-101006565D01*
X146488367Y-101000000D01*
X146480885Y-100928812D01*
X146488232Y-100888640D01*
X149786463Y-100888640D01*
X149804163Y-101069160D01*
X149861418Y-101241273D01*
X149865065Y-101247295D01*
X149865066Y-101247297D01*
X149913181Y-101326744D01*
X149955380Y-101396424D01*
X149960269Y-101401487D01*
X149960270Y-101401488D01*
X150068793Y-101513866D01*
X150101725Y-101576762D01*
X150095425Y-101647479D01*
X150066314Y-101691416D01*
X149983991Y-101772033D01*
X149969962Y-101785771D01*
X149871704Y-101938238D01*
X149869295Y-101944858D01*
X149869293Y-101944861D01*
X149839091Y-102027841D01*
X149809666Y-102108685D01*
X149786932Y-102288640D01*
X149804632Y-102469160D01*
X149861887Y-102641273D01*
X149865534Y-102647295D01*
X149865535Y-102647297D01*
X149916082Y-102730760D01*
X149955849Y-102796424D01*
X149960738Y-102801487D01*
X149960739Y-102801488D01*
X150022959Y-102865918D01*
X150081851Y-102926902D01*
X150087743Y-102930757D01*
X150087747Y-102930761D01*
X150125191Y-102955263D01*
X150171240Y-103009300D01*
X150180763Y-103079655D01*
X150174600Y-103103787D01*
X150146480Y-103181045D01*
X150123746Y-103361000D01*
X150141446Y-103541520D01*
X150198701Y-103713633D01*
X150202348Y-103719655D01*
X150202349Y-103719657D01*
X150278175Y-103844861D01*
X150292663Y-103868784D01*
X150297552Y-103873847D01*
X150297553Y-103873848D01*
X150331835Y-103909348D01*
X150418665Y-103999262D01*
X150455705Y-104023500D01*
X150531294Y-104072964D01*
X150570442Y-104098582D01*
X150577046Y-104101038D01*
X150577048Y-104101039D01*
X150733841Y-104159350D01*
X150733843Y-104159350D01*
X150740451Y-104161808D01*
X150824278Y-104172993D01*
X150913263Y-104184867D01*
X150913267Y-104184867D01*
X150920244Y-104185798D01*
X150927255Y-104185160D01*
X150927259Y-104185160D01*
X151069742Y-104172192D01*
X151100883Y-104169358D01*
X151107583Y-104167181D01*
X151107588Y-104167180D01*
X151110150Y-104166347D01*
X151111885Y-104166297D01*
X151114484Y-104165764D01*
X151114578Y-104166221D01*
X151181118Y-104164320D01*
X151241916Y-104200982D01*
X151273241Y-104264695D01*
X151274484Y-104273878D01*
X151289546Y-104427493D01*
X151346801Y-104599606D01*
X151350448Y-104605628D01*
X151350449Y-104605630D01*
X151436713Y-104748069D01*
X151440763Y-104754757D01*
X151566765Y-104885235D01*
X151718542Y-104984555D01*
X151725146Y-104987011D01*
X151725148Y-104987012D01*
X151881941Y-105045323D01*
X151881943Y-105045323D01*
X151888551Y-105047781D01*
X151972378Y-105058966D01*
X152061363Y-105070840D01*
X152061367Y-105070840D01*
X152068344Y-105071771D01*
X152075355Y-105071133D01*
X152075359Y-105071133D01*
X152217842Y-105058165D01*
X152248983Y-105055331D01*
X152255685Y-105053153D01*
X152255687Y-105053153D01*
X152414792Y-105001457D01*
X152414795Y-105001456D01*
X152421491Y-104999280D01*
X152526428Y-104936725D01*
X152595183Y-104919025D01*
X152634862Y-104926855D01*
X152803168Y-104989448D01*
X152876854Y-104999280D01*
X152975980Y-105012507D01*
X152975984Y-105012507D01*
X152982961Y-105013438D01*
X152989972Y-105012800D01*
X152989976Y-105012800D01*
X153138526Y-104999280D01*
X153163600Y-104996998D01*
X153170302Y-104994820D01*
X153170304Y-104994820D01*
X153329409Y-104943124D01*
X153329412Y-104943123D01*
X153336108Y-104940947D01*
X153491912Y-104848069D01*
X153623266Y-104722982D01*
X153723643Y-104571902D01*
X153775666Y-104434952D01*
X153785555Y-104408920D01*
X153785556Y-104408918D01*
X153788055Y-104402338D01*
X153789035Y-104395366D01*
X153812748Y-104226639D01*
X153812748Y-104226636D01*
X153813299Y-104222717D01*
X153813616Y-104200000D01*
X153793397Y-104019745D01*
X153791080Y-104013091D01*
X153736064Y-103855106D01*
X153736062Y-103855103D01*
X153733745Y-103848448D01*
X153637626Y-103694624D01*
X153623941Y-103680843D01*
X153514778Y-103570915D01*
X153514774Y-103570912D01*
X153509815Y-103565918D01*
X153498697Y-103558862D01*
X153439603Y-103521360D01*
X153356666Y-103468727D01*
X153327463Y-103458328D01*
X153192425Y-103410243D01*
X153192420Y-103410242D01*
X153185790Y-103407881D01*
X153178802Y-103407048D01*
X153178799Y-103407047D01*
X153055698Y-103392368D01*
X153005680Y-103386404D01*
X152998677Y-103387140D01*
X152998676Y-103387140D01*
X152832288Y-103404628D01*
X152832286Y-103404629D01*
X152825288Y-103405364D01*
X152663205Y-103460541D01*
X152592274Y-103463559D01*
X152530970Y-103427749D01*
X152498758Y-103364480D01*
X152497386Y-103355308D01*
X152494182Y-103326744D01*
X152493397Y-103319745D01*
X152484547Y-103294330D01*
X152436064Y-103155106D01*
X152436062Y-103155103D01*
X152433745Y-103148448D01*
X152405840Y-103103790D01*
X152341359Y-103000598D01*
X152337626Y-102994624D01*
X152299239Y-102955968D01*
X152214778Y-102870915D01*
X152214774Y-102870912D01*
X152209815Y-102865918D01*
X152056666Y-102768727D01*
X152008784Y-102751677D01*
X151892425Y-102710243D01*
X151892420Y-102710242D01*
X151885790Y-102707881D01*
X151878802Y-102707048D01*
X151878799Y-102707047D01*
X151755698Y-102692368D01*
X151705680Y-102686404D01*
X151698677Y-102687140D01*
X151698676Y-102687140D01*
X151636911Y-102693632D01*
X151525288Y-102705364D01*
X151519012Y-102707501D01*
X151448349Y-102702606D01*
X151391418Y-102660187D01*
X151366458Y-102593723D01*
X151374328Y-102539710D01*
X151388524Y-102502338D01*
X151391690Y-102479815D01*
X151410776Y-102344006D01*
X151440064Y-102279332D01*
X151499668Y-102240759D01*
X151570664Y-102240534D01*
X151579470Y-102243445D01*
X151696558Y-102286990D01*
X151696560Y-102286990D01*
X151703168Y-102289448D01*
X151782250Y-102300000D01*
X151875980Y-102312507D01*
X151875984Y-102312507D01*
X151882961Y-102313438D01*
X151889972Y-102312800D01*
X151889976Y-102312800D01*
X152032459Y-102299832D01*
X152063600Y-102296998D01*
X152070302Y-102294820D01*
X152070304Y-102294820D01*
X152229409Y-102243124D01*
X152229412Y-102243123D01*
X152236108Y-102240947D01*
X152391912Y-102148069D01*
X152523266Y-102022982D01*
X152623643Y-101871902D01*
X152688055Y-101702338D01*
X152689590Y-101691416D01*
X152712748Y-101526639D01*
X152712748Y-101526636D01*
X152713299Y-101522717D01*
X152713616Y-101500000D01*
X152693397Y-101319745D01*
X152689179Y-101307633D01*
X152636064Y-101155106D01*
X152636062Y-101155103D01*
X152633745Y-101148448D01*
X152545088Y-101006566D01*
X152541359Y-101000598D01*
X152537626Y-100994624D01*
X152532664Y-100989627D01*
X152414778Y-100870915D01*
X152414774Y-100870912D01*
X152409815Y-100865918D01*
X152256666Y-100768727D01*
X152227463Y-100758328D01*
X152092425Y-100710243D01*
X152092420Y-100710242D01*
X152085790Y-100707881D01*
X152078802Y-100707048D01*
X152078799Y-100707047D01*
X151955698Y-100692368D01*
X151905680Y-100686404D01*
X151898677Y-100687140D01*
X151898676Y-100687140D01*
X151732288Y-100704628D01*
X151732286Y-100704629D01*
X151725288Y-100705364D01*
X151553579Y-100763818D01*
X151553361Y-100763952D01*
X151485859Y-100774445D01*
X151420946Y-100745690D01*
X151383376Y-100690968D01*
X151336064Y-100555106D01*
X151336062Y-100555103D01*
X151333745Y-100548448D01*
X151237626Y-100394624D01*
X151192712Y-100349395D01*
X151114778Y-100270915D01*
X151114774Y-100270912D01*
X151109815Y-100265918D01*
X151098697Y-100258862D01*
X151020000Y-100208920D01*
X150956666Y-100168727D01*
X150914580Y-100153741D01*
X150792425Y-100110243D01*
X150792420Y-100110242D01*
X150785790Y-100107881D01*
X150778802Y-100107048D01*
X150778799Y-100107047D01*
X150655698Y-100092368D01*
X150605680Y-100086404D01*
X150598677Y-100087140D01*
X150598676Y-100087140D01*
X150432288Y-100104628D01*
X150432286Y-100104629D01*
X150425288Y-100105364D01*
X150253579Y-100163818D01*
X150247575Y-100167512D01*
X150105095Y-100255166D01*
X150105092Y-100255168D01*
X150099088Y-100258862D01*
X150094053Y-100263793D01*
X150094050Y-100263795D01*
X149977660Y-100377773D01*
X149969493Y-100385771D01*
X149871235Y-100538238D01*
X149868826Y-100544858D01*
X149868824Y-100544861D01*
X149829946Y-100651677D01*
X149809197Y-100708685D01*
X149786463Y-100888640D01*
X146488232Y-100888640D01*
X146493657Y-100858974D01*
X146542159Y-100807127D01*
X146567259Y-100795809D01*
X146586837Y-100789448D01*
X146607769Y-100782647D01*
X146729409Y-100743124D01*
X146729412Y-100743123D01*
X146736108Y-100740947D01*
X146891912Y-100648069D01*
X147023266Y-100522982D01*
X147123643Y-100371902D01*
X147175826Y-100234532D01*
X147185555Y-100208920D01*
X147185556Y-100208918D01*
X147188055Y-100202338D01*
X147189035Y-100195366D01*
X147212748Y-100026639D01*
X147212748Y-100026636D01*
X147213299Y-100022717D01*
X147213616Y-100000000D01*
X147193397Y-99819745D01*
X147191080Y-99813091D01*
X147136064Y-99655106D01*
X147136062Y-99655103D01*
X147133745Y-99648448D01*
X147123662Y-99632312D01*
X147041359Y-99500598D01*
X147037626Y-99494624D01*
X147023941Y-99480843D01*
X146914778Y-99370915D01*
X146914774Y-99370912D01*
X146909815Y-99365918D01*
X146898697Y-99358862D01*
X146801214Y-99296998D01*
X146756666Y-99268727D01*
X146684764Y-99243124D01*
X146592424Y-99210243D01*
X146592422Y-99210243D01*
X146585790Y-99207881D01*
X146578801Y-99207048D01*
X146577451Y-99206731D01*
X146515698Y-99171701D01*
X146482688Y-99108845D01*
X146480916Y-99070890D01*
X146487677Y-99006565D01*
X146488367Y-99000000D01*
X146480885Y-98928812D01*
X146493657Y-98858974D01*
X146542159Y-98807127D01*
X146567259Y-98795809D01*
X146567740Y-98795653D01*
X146610849Y-98781646D01*
X146729409Y-98743124D01*
X146729412Y-98743123D01*
X146736108Y-98740947D01*
X146891912Y-98648069D01*
X147023266Y-98522982D01*
X147123643Y-98371902D01*
X147176049Y-98233944D01*
X147185555Y-98208920D01*
X147185556Y-98208918D01*
X147188055Y-98202338D01*
X147193104Y-98166415D01*
X147212748Y-98026639D01*
X147212748Y-98026636D01*
X147213299Y-98022717D01*
X147213616Y-98000000D01*
X147193397Y-97819745D01*
X147185276Y-97796424D01*
X147136064Y-97655106D01*
X147136062Y-97655103D01*
X147133745Y-97648448D01*
X147037626Y-97494624D01*
X146925150Y-97381360D01*
X146914778Y-97370915D01*
X146914774Y-97370912D01*
X146909815Y-97365918D01*
X146892684Y-97355046D01*
X146835501Y-97318757D01*
X146756666Y-97268727D01*
X146704826Y-97250268D01*
X146592424Y-97210243D01*
X146592422Y-97210243D01*
X146585790Y-97207881D01*
X146578801Y-97207048D01*
X146577451Y-97206731D01*
X146515698Y-97171701D01*
X146482688Y-97108845D01*
X146480916Y-97070890D01*
X146487677Y-97006565D01*
X146488367Y-97000000D01*
X146468954Y-96815298D01*
X146455190Y-96772936D01*
X146453163Y-96701968D01*
X146489825Y-96641170D01*
X146553538Y-96609845D01*
X146575023Y-96608000D01*
X148952959Y-96608000D01*
X149021080Y-96628002D01*
G37*
%TD.AperFunction*%
%TA.AperFunction,Conductor*%
G36*
X159237794Y-101499986D02*
G01*
X159293634Y-101535872D01*
X159333005Y-101579597D01*
X159363720Y-101643601D01*
X159365364Y-101664729D01*
X159358749Y-102670203D01*
X159348068Y-102671739D01*
X159283488Y-102642245D01*
X159276905Y-102636116D01*
X159234931Y-102594142D01*
X159220987Y-102586528D01*
X159206092Y-102587593D01*
X159179871Y-102586031D01*
X159168713Y-102590498D01*
X158772021Y-102987189D01*
X158764408Y-103001132D01*
X158764539Y-103002966D01*
X158768790Y-103009580D01*
X159165073Y-103405862D01*
X159179010Y-103413473D01*
X159193908Y-103412407D01*
X159220129Y-103413969D01*
X159231287Y-103409502D01*
X159276905Y-103363884D01*
X159339217Y-103329858D01*
X159354402Y-103330944D01*
X159352155Y-103672437D01*
X159352154Y-103672440D01*
X159347138Y-104434952D01*
X159326689Y-104502940D01*
X159314776Y-104518434D01*
X159273634Y-104564126D01*
X159213188Y-104601365D01*
X159142204Y-104600013D01*
X159086363Y-104564125D01*
X158978856Y-104444726D01*
X158978855Y-104444725D01*
X158974434Y-104439815D01*
X158957475Y-104427493D01*
X158829526Y-104334533D01*
X158829525Y-104334532D01*
X158824184Y-104330652D01*
X158818156Y-104327968D01*
X158818154Y-104327967D01*
X158660552Y-104257798D01*
X158660551Y-104257798D01*
X158654521Y-104255113D01*
X158563691Y-104235807D01*
X158479317Y-104217872D01*
X158479313Y-104217872D01*
X158472860Y-104216500D01*
X158416957Y-104216500D01*
X158348836Y-104196498D01*
X158302343Y-104142842D01*
X158292183Y-104072964D01*
X158299273Y-104022515D01*
X158303637Y-103991463D01*
X158332925Y-103926790D01*
X158392529Y-103888217D01*
X158428411Y-103883000D01*
X158486204Y-103883000D01*
X158499264Y-103881628D01*
X158667908Y-103845781D01*
X158680396Y-103841724D01*
X158803698Y-103786826D01*
X158814442Y-103777694D01*
X158812845Y-103772055D01*
X158129885Y-103089095D01*
X158095859Y-103026783D01*
X158100924Y-102955968D01*
X158129885Y-102910905D01*
X158400000Y-102640790D01*
X158807435Y-102233354D01*
X158814195Y-102220974D01*
X158810684Y-102216284D01*
X158680396Y-102158276D01*
X158667907Y-102154218D01*
X158523401Y-102123503D01*
X158460927Y-102089775D01*
X158426605Y-102027625D01*
X158431333Y-101956786D01*
X158473608Y-101899749D01*
X158523400Y-101877009D01*
X158593194Y-101862174D01*
X158674521Y-101844887D01*
X158680552Y-101842202D01*
X158838154Y-101772033D01*
X158838156Y-101772032D01*
X158844184Y-101769348D01*
X158849526Y-101765467D01*
X158989090Y-101664068D01*
X158989092Y-101664066D01*
X158994434Y-101660185D01*
X159106364Y-101535874D01*
X159166810Y-101498634D01*
X159237794Y-101499986D01*
G37*
%TD.AperFunction*%
%TD*%
M02*
